<?xml version="1.0" encoding="UTF-8"?>
<svg width="1200px" height="630px" viewBox="0 0 1200 630" version="1.1" xmlns="http://www.w3.org/2000/svg" xmlns:xlink="http://www.w3.org/1999/xlink">
    <title>background-hero</title>
    <defs>
        <linearGradient x1="50%" y1="0%" x2="50%" y2="100%" id="linearGradient-1">
            <stop stop-color="#4B57EA" offset="0%"></stop>
            <stop stop-color="#4B57EA" offset="100%"></stop>
        </linearGradient>
    </defs>
    <g id="background-hero" stroke="none" stroke-width="1" fill="none" fill-rule="evenodd">
        <circle id="Oval" fill="url(#linearGradient-1)" cx="600.5" cy="314.5" r="266.5"></circle>
        <path d="M-148.905816,555.637688 L-148.905816,467.934262 C-82.853672,512.204136 -3.99471419,517.499553 87.6710578,483.82051 C225.169716,433.301947 376.496265,467.934262 455.789126,521.018505 C508.651033,556.408 509.514854,567.947728 458.380588,555.637688" id="Path-Copy" stroke="#A7CCFE" stroke-width="3" opacity="0.5" stroke-linecap="round" stroke-linejoin="round" stroke-dasharray="8" transform="translate(173.594184, 509.801068) rotate(30.000000) translate(-173.594184, -509.801068) "></path>
        <path d="M800.761176,-84 C792.956981,-84 542.485366,-4.95574849 600.256919,-5.52150032 C658.028472,-6.08725215 786.7286,16.8482946 871.875346,47.0257515 C999.595465,92.2919369 1180.78778,69.2514836 1261.33855,14.1022417 C1315.03906,-22.6639196 1315.03906,11.8045145 1261.33855,117.507544" id="Path-Copy-3" stroke="#4D53F3" stroke-width="3" opacity="0.25" stroke-linecap="round" stroke-linejoin="round" stroke-dasharray="8"></path>
    </g>
</svg>