<svg id="Layer_1" data-name="Layer 1" xmlns="http://www.w3.org/2000/svg" viewBox="0 0 350 350"><defs><style>.cls-1{fill:#2e3b3b;}.cls-2{fill:none;stroke:#2e3b3b;stroke-linecap:round;stroke-miterlimit:10;stroke-width:16px;}</style></defs><path class="cls-1" d="M175,33A142,142,0,0,1,275.41,275.41,142,142,0,0,1,74.59,74.59,141.07,141.07,0,0,1,175,33m0-16A158,158,0,1,0,333,175,158,158,0,0,0,175,17Z"/><ellipse class="cls-1" cx="131" cy="136" rx="17.63" ry="35"/><ellipse class="cls-1" cx="219" cy="136" rx="17.63" ry="35"/><path class="cls-2" d="M261.28,203.3c-12,37-45.63,63.7-85.22,63.7"/><path class="cls-2" d="M90.48,203.3c12,37,45.62,63.7,85.22,63.7"/><path class="cls-2" d="M252.21,199s8.69-1.13,16.63,6.8"/><path class="cls-2" d="M98.79,199s-8.69-1.13-16.63,6.8"/></svg>