<?xml version="1.0" encoding="utf-8"?>
<!-- Generator: Adobe Illustrator 27.0.0, SVG Export Plug-In . SVG Version: 6.00 Build 0)  -->
<svg version="1.1" id="Layer_2_00000021836797667003646290000001156645864238306461_"
	 xmlns="http://www.w3.org/2000/svg" xmlns:xlink="http://www.w3.org/1999/xlink" x="0px" y="0px" viewBox="0 0 1254 125"
	 style="enable-background:new 0 0 1254 125;" xml:space="preserve">
<style type="text/css">
	.st0{fill:none;}
	.st1{fill:#616ECE;}
	.st2{fill:#616ECE;stroke:#616ECE;stroke-miterlimit:10;}
</style>
<rect class="st0" width="1254" height="125"/>
<g>
	<g>
		<path class="st1" d="M25.3,69.2L0,21.1h19.9L34.2,51h1l14.2-29.9h19.9L44,69.2v25.2H25.3C25.3,94.4,25.3,69.2,25.3,69.2z"/>
		<path class="st1" d="M69.9,74.4V37.9h18v32.5c0,6.9,2.6,10.7,8.7,10.7s9.5-4.4,9.5-10.9V37.9h18v56.6h-18v-8.8h-1
			c-2.4,6.2-8.2,10.2-16.2,10.2C76.5,95.8,69.9,88,69.9,74.4z"/>
		<path class="st1" d="M125.3,113.4v-13c0.6,0.1,1.4,0.1,2.1,0.1c4.6,0,6.6-1.5,6.6-5.4V37.8h18v57.9c0,11.5-7.7,17.8-21.5,17.8
			C128.8,113.6,126.3,113.5,125.3,113.4z M133.5,20.9c0-5.2,4.4-9.4,9.6-9.4s9.6,4.2,9.6,9.4s-4.3,9.4-9.6,9.4
			S133.5,26.2,133.5,20.9z"/>
		<path class="st1" d="M161.5,20.9c0-5.2,4.3-9.4,9.6-9.4s9.6,4.2,9.6,9.4s-4.3,9.4-9.6,9.4S161.5,26.2,161.5,20.9z M161.9,37.9h18
			v56.6h-18V37.9z"/>
		<path class="st1" d="M189.8,37.9h18v8.8h1c2.4-6.2,8.1-10.2,16.1-10.2c12.6,0,19.1,7.8,19.1,21.3v36.5h-18V61.8
			c0-6.9-2.8-10.7-8.9-10.7s-9.3,4.4-9.3,10.9v32.3h-18L189.8,37.9L189.8,37.9L189.8,37.9z"/>
		<path class="st1" d="M276.4,21.1h18.7v58.3h31.2v15h-49.8V21.1H276.4L276.4,21.1z"/>
		<path class="st1" d="M328.7,66.2L328.7,66.2c0-18.3,10.8-29.6,27.9-29.6s27.9,11.2,27.9,28.5v5.2h-38.1
			c0.2,8.1,4.3,12.8,11.2,12.8c6,0,9.1-3.5,9.9-4.9l0.1-0.2l16.5-0.1l-0.2,0.6c-1.6,6.8-8.5,17.4-26.7,17.4
			C339.5,95.8,328.7,84.5,328.7,66.2L328.7,66.2z M346.6,59.7h20.8c-0.9-6.8-4.8-10.4-10.4-10.4C351.5,49.4,347.4,53.1,346.6,59.7
			L346.6,59.7z"/>
		<path class="st1" d="M388.7,66.2L388.7,66.2c0-18.3,10.8-29.6,27.9-29.6s27.9,11.2,27.9,28.5v5.2h-38.1
			c0.2,8.1,4.3,12.8,11.2,12.8c6,0,9.1-3.5,9.9-4.9l0.1-0.2l16.5-0.1l-0.2,0.6c-1.6,6.8-8.5,17.4-26.7,17.4
			C399.5,95.8,388.7,84.5,388.7,66.2L388.7,66.2z M406.6,59.7h20.8c-0.9-6.8-4.8-10.4-10.4-10.4C411.4,49.4,407.4,53.1,406.6,59.7
			L406.6,59.7z"/>
	</g>
	<g>
		<path class="st1" d="M578.5,20.9c0-5.2,4.3-9.4,9.6-9.4s9.6,4.2,9.6,9.4s-4.3,9.4-9.6,9.4S578.5,26.2,578.5,20.9z M579,37.9h18
			v56.6h-18V37.9z"/>
		<path class="st1" d="M604.2,78.6v-0.4h17.5l0.1,0.3c1.1,2.9,3.9,5.1,9.1,5.1c4.8,0,7.9-1.9,7.9-4.9v-0.1c0-2.6-1.9-4.2-7.1-5.2
			l-9.8-1.9c-10.9-2.2-16.5-7.9-16.5-16.5v-0.1c0-11.3,9.7-18.3,24.9-18.3c16.4,0,24.6,8.1,24.9,17.2v0.3h-16.5l-0.1-0.4
			c-0.6-2.3-3.4-5-8.3-5c-4.5,0-7.5,1.9-7.5,5v0.1c0,2.5,1.7,4,7.1,5.1l9.8,1.9c11.7,2.3,17,7.1,17,15.6v0.1
			c0,11.7-10.6,19.3-25.9,19.3C614.2,95.8,605.4,88.4,604.2,78.6L604.2,78.6z"/>
		<path class="st1" d="M682.5,78.2L682.5,78.2c0-10.4,8-16.3,22.6-17.2l12.4-0.7v-4.4c0-3.8-2.8-6.1-7.8-6.1c-4.7,0-7.6,1.6-8.7,4.4
			l-0.1,0.3h-16.2l0.1-0.6c1-10.4,10.8-17.3,26.1-17.3s24.5,7.1,24.5,19.3v38.6h-17.7v-7h-1c-2.5,4.8-8.5,7.9-15.8,7.9
			C689.9,95.3,682.5,88.5,682.5,78.2z M707.5,82.7c5.7,0,10.1-3.8,10.1-8.6v-3.7l-9.5,0.6c-5.3,0.4-8.1,2.5-8.1,5.8v0.1
			C699.9,80.5,702.9,82.7,707.5,82.7z"/>
	</g>
</g>
<g>
	<path class="st2" d="M502,21c-22.1,0-40,17.9-40,40s17.9,40,40,40c22.1,0,40-17.9,40-40S524.1,21,502,21z M527.4,86.5
		C520.6,93.3,511.6,97,502,97c-9.6,0-18.6-3.7-25.4-10.5c-6.8-6.8-10.5-15.8-10.5-25.4s3.7-18.6,10.5-25.4
		c6.8-6.8,15.8-10.5,25.4-10.5c9.6,0,18.6,3.7,25.4,10.5c6.8,6.8,10.5,15.8,10.5,25.4S534.2,79.7,527.4,86.5z"/>
	<ellipse class="st2" cx="490.9" cy="51.2" rx="4.5" ry="8.9"/>
	<ellipse class="st2" cx="513.1" cy="51.2" rx="4.5" ry="8.9"/>
	<path class="st2" d="M527.2,67.4c-2.6-2.6-5.6-2.3-5.9-2.3c-1.1,0.1-1.9,1.2-1.7,2.3c0.1,1,0.9,1.7,1.8,1.8
		c-3.2,7.9-10.7,13.2-19.1,13.2c0,0,0,0,0,0c0,0,0,0,0,0c-8.4,0-15.9-5.2-19.1-13.2c0.8-0.2,1.5-0.8,1.6-1.7
		c0.1-1.1-0.6-2.1-1.7-2.3c-0.1,0-0.2,0-0.4,0c-1,0-3.3,0.2-5.5,2.3c-0.8,0.8-0.8,2.1,0,2.9c0.4,0.4,0.9,0.6,1.4,0.6c0,0,0,0,0,0
		s0,0,0,0c0.3,0,0.6-0.1,0.8-0.2c3.9,9.5,12.8,15.7,22.8,15.7c0,0,0,0,0,0c0,0,0,0,0,0c10,0,18.9-6.2,22.8-15.6
		c0.2,0.1,0.5,0.1,0.7,0.1c0.5,0,1-0.2,1.4-0.6C528,69.5,528,68.2,527.2,67.4z"/>
</g>
</svg>
