<?xml version="1.0" encoding="utf-8"?>
<!-- Generator: Adobe Illustrator 27.0.0, SVG Export Plug-In . SVG Version: 6.00 Build 0)  -->
<svg version="1.1" id="Layer_2_00000170973478586048524590000012015858890906739104_"
	 xmlns="http://www.w3.org/2000/svg" xmlns:xlink="http://www.w3.org/1999/xlink" x="0px" y="0px" viewBox="0 0 1254 125"
	 style="enable-background:new 0 0 1254 125;" xml:space="preserve">
<style type="text/css">
	.st0{fill:none;}
	.st1{fill:#616ECE;}
</style>
<rect class="st0" width="1254" height="125"/>
<g>
	<g>
		<path class="st1" d="M0,22.5h30.5c15.6,0,26,10,26,25.3v0.1c0,15.2-10.4,25.3-26,25.3h-15v23.3H0V22.5z M15.4,34.8V61h11.2
			c8.9,0,14.1-4.7,14.1-13.1v-0.1c0-8.4-5.2-13.1-14.1-13.1L15.4,34.8L15.4,34.8z"/>
		<path class="st1" d="M65,40h15v8.8h0.9c1.8-6.1,6.9-9.7,14.3-9.7c2,0,4.1,0.3,5.6,0.7v13.1c-2.3-0.5-4.6-0.9-6.9-0.9
			C85.4,52,80,56.9,80,64.9v31.6H65V40z"/>
		<path class="st1" d="M102.5,68.2L102.5,68.2c0-18.3,10.6-29.5,27.8-29.5s27.8,11.1,27.8,29.4v0.1c0,18.4-10.5,29.4-27.8,29.4
			S102.5,86.7,102.5,68.2z M142.8,68.2L142.8,68.2c0-11.1-4.6-17.7-12.5-17.7s-12.5,6.6-12.5,17.6v0.1c0,11.1,4.5,17.6,12.5,17.6
			C138.2,85.8,142.8,79.3,142.8,68.2z"/>
		<path class="st1" d="M163.3,68.2L163.3,68.2c0-18.2,8.6-29.2,22.9-29.2c7.7,0,14,3.8,16.9,9.9h0.9V18.4h15v78h-15v-8.8h-0.9
			c-2.9,6.1-8.9,9.6-16.9,9.6C172.1,97.3,163.3,86.3,163.3,68.2z M204.2,68.3L204.2,68.3c0-10.5-5-16.8-12.9-16.8
			s-12.8,6.5-12.8,16.7v0.1c0,10.4,4.9,16.7,12.8,16.7C199.3,85,204.2,78.7,204.2,68.3z"/>
		<path class="st1" d="M229.8,76.6V40h15v33.1c0,8,3,12.2,10.1,12.2s11.4-5,11.4-12.6V40.2h15v56.4h-15v-8.7h-0.9
			c-2.6,6.2-8.3,9.9-16.4,9.9C236.3,97.7,229.8,90,229.8,76.6z"/>
		<path class="st1" d="M289.2,68.2L289.2,68.2c0-18.7,9.9-29.4,27.6-29.4c15,0,23.8,8.2,25.2,20.8v0.2h-13.9l-0.1-0.1
			c-1-5.5-4.7-9.1-11.1-9.1c-8,0-12.5,6.3-12.5,17.5v0.1c0,11.4,4.5,17.7,12.5,17.7c6.2,0,9.8-2.9,11.1-8.6l0.1-0.2h13.8l-0.1,0.3
			c-1.5,12.3-10.4,20.2-25.1,20.2C299.2,97.7,289.2,87,289.2,68.2L289.2,68.2z"/>
		<path class="st1" d="M354.1,81.2V51.3h-8.7V40h8.7V26.5h15.1V40h11.6v11.3h-11.6v26.5c0,5.1,2.2,7.3,7.2,7.3c1.9,0,3-0.1,4.4-0.3
			v11.1c-1.8,0.4-4.6,0.7-7.5,0.7C359.6,96.6,354.1,92.2,354.1,81.2z"/>
		<path class="st1" d="M413.4,22.5h29.1c22,0,34.7,13.3,34.7,36.5l0,0c0,23.9-12.6,37.4-34.7,37.4h-29.1V22.5z M440.1,83.7
			c13.7,0,21.4-8.6,21.4-24.4v-0.1c0-15.2-7.9-23.9-21.4-23.9h-11.2v48.4H440.1z"/>
		<path class="st1" d="M483.5,68.3L483.5,68.3c0-18,10.5-29.5,27-29.5s26.7,11.3,26.7,28.4v4.7h-38.9c0.2,9.3,5.1,14.7,13.1,14.7
			c6.6,0,10.2-3.5,11.2-5.6l0.2-0.3h13.9l-0.1,0.5c-1.7,7.1-9,16.6-25.5,16.6C493.9,97.6,483.5,86.4,483.5,68.3L483.5,68.3z
			 M498.4,62.4h24.4c-0.9-8.2-5.6-12.4-12.1-12.4S499.4,54.4,498.4,62.4L498.4,62.4z"/>
		<path class="st1" d="M542.5,81.1l-0.1-0.2h14.7l0.1,0.2c1.2,3.5,4.6,6,10.5,6s9.6-2.5,9.6-6.2v-0.1c0-3-2.3-4.9-8-6.2l-9.4-2
			c-10.8-2.3-16.1-7.6-16.1-16v-0.1c0-10.6,9.4-17.7,23.5-17.7c14.8,0,23,7.4,23.6,16.5v0.2H577l-0.1-0.3c-0.8-3-4.2-5.8-9.7-5.8
			c-5.2,0-8.9,2.4-8.9,6.2v0.1c0,3,2.1,4.8,7.9,6l9.4,2c11.3,2.4,16.6,7.1,16.6,15.5v0.1c0,11.2-10.3,18.5-24.8,18.5
			C552.3,97.7,543.6,90.8,542.5,81.1L542.5,81.1z"/>
		<path class="st1" d="M599.6,23c0-4.7,3.8-8.4,8.5-8.4s8.4,3.7,8.4,8.4s-3.8,8.3-8.4,8.3S599.6,27.6,599.6,23z M600.5,40h15v56.4
			h-15V40z"/>
		<path class="st1" d="M625.3,100.2v-0.3h14.8l0.1,0.2c0.8,3.3,4.7,5.5,11.4,5.5c8,0,12.7-3.7,12.7-10.3V84.7h-0.9
			c-3.1,5.9-9.1,9.2-16.9,9.2c-14.2,0-23-11-23-27v-0.1c0-16.6,8.8-27.8,23.2-27.8c7.7,0,13.8,3.8,16.8,10.2h0.7V40h15v54.7
			c0,13.2-10.8,21.6-27.9,21.6C635.7,116.3,626.6,109.7,625.3,100.2L625.3,100.2z M664.4,66.9L664.4,66.9c0-9.4-4.9-15.7-12.9-15.7
			s-12.7,6.3-12.7,15.6v0.1c0,9.3,4.6,15.6,12.7,15.6S664.4,76.2,664.4,66.9z"/>
		<path class="st1" d="M690,40h15v8.7h0.9c2.6-6.1,8.2-9.9,16.2-9.9c12.6,0,19.3,7.7,19.3,21.2v36.5h-15V63.3
			c0-7.9-3.3-12.2-10.4-12.2s-11.1,5-11.1,12.6v32.7h-15L690,40L690,40z"/>
		<path class="st1" d="M748.9,68.3L748.9,68.3c0-18,10.5-29.5,27-29.5s26.7,11.3,26.7,28.4v4.7h-38.9c0.2,9.3,5.1,14.7,13.1,14.7
			c6.6,0,10.2-3.5,11.2-5.6l0.2-0.3h13.9l-0.1,0.5c-1.7,7.1-9,16.6-25.5,16.6C759.3,97.6,748.9,86.4,748.9,68.3L748.9,68.3z
			 M763.8,62.4h24.4c-0.9-8.2-5.6-12.4-12.1-12.4S764.8,54.4,763.8,62.4L763.8,62.4z"/>
		<path class="st1" d="M810.5,40h15v8.8h0.9c1.8-6.1,6.9-9.7,14.3-9.7c2,0,4.1,0.3,5.6,0.7v13.1c-2.3-0.5-4.6-0.9-6.9-0.9
			c-8.5,0-13.9,4.9-13.9,12.9v31.6h-15V40L810.5,40z"/>
	</g>
	<path class="st1" d="M880.2,70.2h-12.1c-2.2,0-4.1-1.9-4.1-4.1s1.9-4.1,4.1-4.1h12.1c2.2,0,4.1,1.9,4.1,4.1S882.4,70.2,880.2,70.2z
		 M885.5,47.7l-8.4-8.4c-1.6-1.6-1.6-4.2,0-5.8s4.2-1.5,5.8,0l8.4,8.4c1.6,1.6,1.6,4.2,0,5.8S887,49.2,885.5,47.7z M891.6,89.9
		l-8.4,8.4c-1.6,1.6-4.3,1.5-5.9-0.1c-1.5-1.6-1.5-4.2,0.1-5.8l8.4-8.4c1.6-1.6,4.3-1.6,5.8,0C893.2,85.7,893.2,88.3,891.6,89.9z
		 M905.6,36.5V24.4c0-2.2,1.9-4.1,4.1-4.1s4.1,1.9,4.1,4.1v12.1c0,2.2-1.9,4.1-4.1,4.1S905.6,38.8,905.6,36.5z M906.9,62
		c0-1.7,1.8-2.4,3-1.2l22.8,23.3c1.3,1.4,0.4,3.1-1.4,3.2l-8.7,0.2l7.3,16.7c0.4,0.9,0.2,2-0.8,2.4l-4.2,1.6c-1,0.4-1.9-0.2-2.3-1.1
		l-6.8-16.9l-6,6.1c-1.2,1.2-3.3,0.6-3.3-1.2C906.5,95,906.9,61.9,906.9,62z M927.7,42.3l8.4-8.4c1.6-1.6,4.3-1.6,5.8,0
		c1.6,1.6,1.6,4.3,0,5.8l-8.4,8.4c-1.6,1.6-4.3,1.6-5.8,0S926.1,43.9,927.7,42.3z M939.3,62h12.1c2.2,0,4.1,1.9,4.1,4.1
		s-1.9,4.1-4.1,4.1h-12.1c-2.2,0-4.1-1.9-4.1-4.1S937,62,939.3,62z"/>
</g>
</svg>
