<?xml version="1.0" encoding="utf-8"?>
<!-- Generator: Adobe Illustrator 28.2.0, SVG Export Plug-In . SVG Version: 6.00 Build 0)  -->
<svg version="1.1" id="Layer_2_00000021836797667003646290000001156645864238306461_"
	 xmlns="http://www.w3.org/2000/svg" xmlns:xlink="http://www.w3.org/1999/xlink" x="0px" y="0px" viewBox="0 0 1650 125"
	 style="enable-background:new 0 0 1650 125;" xml:space="preserve">
<style type="text/css">
	.st0{fill:#616ECE;}
	.st1{fill:none;}
</style>
<g>
	<g>
		<path class="st0" d="M29.6,68.3L3.2,20.7h17.2l17.1,32.5h0.4l17-32.5h17.2L45.6,68.3v28.4H29.6V68.3z"/>
		<path class="st0" d="M87.2,95.4c-2.9-1.7-5.1-4.1-6.6-7.3c-1.5-3.2-2.3-6.9-2.3-11.3V40.2h15.4v33.3c0,3.7,0.9,6.6,2.6,8.6
			c1.7,2,4.3,3.1,7.8,3.1c1.7,0,3.3-0.3,4.7-0.9c1.4-0.6,2.6-1.5,3.6-2.6c1-1.1,1.7-2.4,2.3-4s0.8-3.2,0.8-5V40.2h15.4v56.5h-15.4
			v-9.3H115c-0.9,2.1-2.2,4-3.8,5.6s-3.5,2.8-5.7,3.6s-4.8,1.3-7.7,1.3C93.6,97.9,90.1,97.1,87.2,95.4z"/>
		<path class="st0" d="M133.9,115.4c-0.8,0-1.5-0.1-1.9-0.2v-11.6c0.3,0,0.6,0.1,0.9,0.1c0.3,0,0.7,0,1,0c2.5,0,4.3-0.5,5.4-1.4
			c1.1-0.9,1.6-2.5,1.6-4.8V40.2h15.5v57.7c0,5.7-1.7,10.1-5.1,13.1c-3.4,3-8.5,4.5-15.1,4.5C135.5,115.4,134.7,115.4,133.9,115.4z
			 M142.8,30.6c-1.6-1.6-2.4-3.5-2.4-5.7c0-2.2,0.8-4.1,2.4-5.7c1.6-1.6,3.6-2.3,5.9-2.3s4.3,0.8,5.9,2.3c1.6,1.6,2.4,3.5,2.4,5.7
			c0,2.2-0.8,4.1-2.4,5.7c-1.6,1.6-3.5,2.4-5.9,2.4S144.4,32.2,142.8,30.6z"/>
		<path class="st0" d="M168.8,30.6c-1.6-1.6-2.4-3.5-2.4-5.7c0-2.2,0.8-4.1,2.4-5.7c1.6-1.6,3.6-2.3,5.9-2.3s4.3,0.8,5.9,2.3
			c1.6,1.6,2.4,3.5,2.4,5.7c0,2.2-0.8,4.1-2.4,5.7c-1.6,1.6-3.5,2.4-5.9,2.4S170.4,32.2,168.8,30.6z M167,40.2h15.5v56.5H167V40.2z"
			/>
		<path class="st0" d="M192.7,40.2h15.4v9.3h0.3c1.5-3.2,3.7-5.8,6.5-7.6c2.9-1.9,6.5-2.8,10.7-2.8c6.2,0,11,1.9,14.4,5.6
			s5.1,8.9,5.1,15.6v36.5h-15.4V63.5c0-3.7-0.9-6.6-2.6-8.6c-1.7-2-4.3-3.1-7.8-3.1c-2.3,0-4.3,0.5-6,1.6s-3,2.5-3.9,4.4
			c-0.9,1.9-1.4,4-1.4,6.5v32.5h-15.4V40.2z"/>
		<path class="st0" d="M277.6,20.7h15.9v63h33.3v13.1h-49.2V20.7z"/>
		<path class="st0" d="M345.8,94.4c-4.1-2.4-7.3-5.8-9.6-10.2c-2.3-4.4-3.4-9.6-3.4-15.6v-0.1c0-6,1.1-11.2,3.4-15.6
			c2.2-4.4,5.4-7.8,9.5-10.2c4.1-2.4,8.8-3.6,14.4-3.6c5.5,0,10.3,1.2,14.3,3.5c4,2.3,7.1,5.6,9.3,9.9c2.2,4.3,3.3,9.2,3.3,14.9v4.8
			h-46.6v-9.8h39.3l-7.3,9.1v-6c0-3.3-0.5-6.1-1.5-8.3c-1-2.2-2.4-3.9-4.2-5c-1.8-1.1-3.9-1.7-6.3-1.7c-2.4,0-4.5,0.6-6.4,1.7
			s-3.3,2.9-4.3,5.1c-1,2.2-1.6,5-1.6,8.2v6c0,3.1,0.5,5.7,1.6,8s2.5,3.9,4.5,5.1c1.9,1.2,4.2,1.8,6.9,1.8c2.1,0,3.9-0.3,5.5-1
			c1.5-0.7,2.8-1.5,3.8-2.5c1-1,1.7-2.1,2-3.1l0.1-0.3h14.1l-0.2,0.6c-0.4,2.1-1.2,4.2-2.5,6.3c-1.2,2.1-2.9,4-5,5.8
			c-2.1,1.8-4.6,3.2-7.6,4.2s-6.5,1.6-10.6,1.6C354.9,97.9,349.9,96.7,345.8,94.4z"/>
		<path class="st0" d="M405.7,94.4c-4.1-2.4-7.3-5.8-9.6-10.2c-2.3-4.4-3.4-9.6-3.4-15.6v-0.1c0-6,1.1-11.2,3.4-15.6
			c2.2-4.4,5.4-7.8,9.5-10.2c4.1-2.4,8.8-3.6,14.4-3.6c5.5,0,10.3,1.2,14.3,3.5c4,2.3,7.1,5.6,9.3,9.9c2.2,4.3,3.3,9.2,3.3,14.9v4.8
			h-46.6v-9.8h39.3l-7.3,9.1v-6c0-3.3-0.5-6.1-1.5-8.3c-1-2.2-2.4-3.9-4.2-5c-1.8-1.1-3.9-1.7-6.3-1.7c-2.4,0-4.5,0.6-6.4,1.7
			s-3.3,2.9-4.3,5.1c-1,2.2-1.6,5-1.6,8.2v6c0,3.1,0.5,5.7,1.6,8s2.5,3.9,4.5,5.1c1.9,1.2,4.2,1.8,6.9,1.8c2.1,0,3.9-0.3,5.5-1
			c1.5-0.7,2.8-1.5,3.8-2.5c1-1,1.7-2.1,2-3.1l0.1-0.3h14.1l-0.2,0.6c-0.4,2.1-1.2,4.2-2.5,6.3c-1.2,2.1-2.9,4-5,5.8
			c-2.1,1.8-4.6,3.2-7.6,4.2s-6.5,1.6-10.6,1.6C414.8,97.9,409.9,96.7,405.7,94.4z"/>
		<path class="st0" d="M584.3,35.6c-1.3-1.3-2-2.9-2-4.7c0-1.9,0.7-3.4,2-4.7c1.3-1.3,2.9-1.9,4.8-1.9c1.9,0,3.5,0.6,4.8,1.9
			c1.3,1.3,2,2.9,2,4.7c0,1.8-0.7,3.4-2,4.7c-1.3,1.3-2.9,2-4.8,2C587.2,37.6,585.6,36.9,584.3,35.6z M583.1,45h12.2v51.8h-12.2V45z
			"/>
		<path class="st0" d="M614.1,95.8c-3.2-1.3-5.7-3.2-7.5-5.6c-1.8-2.4-2.9-5.2-3.3-8.4l0-0.4h12l0.1,0.4c0.5,2.2,1.5,4,3.2,5.2
			c1.7,1.2,4.1,1.9,7.2,1.9c2,0,3.7-0.2,5.1-0.7c1.4-0.5,2.5-1.2,3.2-2.1c0.8-0.9,1.1-2.1,1.1-3.3v0c0-1.5-0.5-2.8-1.6-3.7
			c-1-1-2.9-1.7-5.6-2.4l-8.6-1.9c-3.3-0.7-6-1.8-8.3-3.1c-2.2-1.3-3.9-2.9-5-4.9c-1.1-1.9-1.7-4.2-1.7-6.8v0c0-3.2,0.9-5.9,2.6-8.3
			c1.7-2.4,4.2-4.2,7.3-5.6c3.1-1.3,6.8-2,10.9-2c4.3,0,8,0.7,11,2.1c3.1,1.4,5.4,3.4,7.1,5.8c1.7,2.4,2.6,5.1,2.7,8.1l0,0.5h-11.3
			l0-0.4c-0.3-2.1-1.2-3.8-2.8-5.2c-1.6-1.4-3.9-2-6.7-2c-1.8,0-3.3,0.3-4.7,0.8c-1.3,0.5-2.3,1.3-3,2.2c-0.7,0.9-1,2.1-1,3.3v0
			c0,1,0.2,1.9,0.7,2.6s1.3,1.5,2.3,2c1.1,0.6,2.5,1.1,4.3,1.5l8.6,1.9c5.4,1.2,9.2,2.9,11.5,5.2c2.3,2.2,3.4,5.2,3.4,9v0
			c0,3.3-0.9,6.1-2.8,8.6c-1.9,2.5-4.4,4.4-7.7,5.7s-7,2-11.3,2C621.2,97.8,617.3,97.1,614.1,95.8z"/>
		<path class="st0" d="M681.5,95.7c-2.6-1.3-4.7-3.2-6.1-5.5c-1.4-2.4-2.2-5.1-2.2-8.1v-0.1c0-3.1,0.8-5.7,2.3-7.9
			c1.5-2.2,3.8-3.9,6.7-5.2c2.9-1.3,6.5-2.1,10.6-2.3l19.8-1.2v8.1l-18.1,1.1c-3,0.2-5.3,0.9-6.9,2.1c-1.6,1.2-2.4,2.9-2.4,4.9v0
			c0,2.1,0.8,3.8,2.4,5s3.8,1.8,6.4,1.8c2.3,0,4.4-0.5,6.3-1.4c1.8-0.9,3.3-2.2,4.4-3.9c1.1-1.6,1.6-3.5,1.6-5.5V62
			c0-2.6-0.8-4.7-2.5-6.2c-1.6-1.5-4-2.3-7.1-2.3c-2.9,0-5.2,0.6-6.9,1.8c-1.7,1.2-2.8,2.8-3.2,4.7l-0.1,0.4h-11.2l0-0.6
			c0.3-3.1,1.3-5.8,3.1-8.2c1.8-2.4,4.3-4.3,7.4-5.7c3.2-1.4,6.9-2.1,11.3-2.1c4.3,0,8.1,0.7,11.3,2.1c3.2,1.4,5.6,3.4,7.4,6
			c1.7,2.6,2.6,5.6,2.6,9.1v35.6h-12.1v-8h-0.3c-1,1.8-2.2,3.4-3.8,4.7c-1.6,1.3-3.3,2.4-5.3,3.1s-4.1,1.1-6.4,1.1
			C687.1,97.6,684.1,97,681.5,95.7z"/>
		<path class="st0" d="M749.6,26.3h25.7c7,0,13,1.4,18,4.1s8.8,6.7,11.5,11.9c2.7,5.2,4,11.5,4,18.9v0.1c0,7.4-1.3,13.8-4,19.1
			c-2.7,5.3-6.5,9.3-11.5,12.1c-5,2.8-11,4.2-18,4.2h-25.7V26.3z M774,86.2c4.8,0,8.8-1,12-2.9c3.3-1.9,5.7-4.7,7.4-8.3
			c1.7-3.7,2.5-8.2,2.5-13.5v-0.1c0-5.2-0.9-9.7-2.6-13.3c-1.7-3.6-4.2-6.4-7.5-8.3c-3.3-1.9-7.3-2.8-11.9-2.8h-11.8v49.3H774z"/>
		<path class="st0" d="M827,94.5c-3.7-2.2-6.6-5.3-8.6-9.3c-2-4-3-8.7-3-14.2v0c0-5.4,1-10.2,3-14.2s4.8-7.2,8.4-9.4
			c3.6-2.2,7.9-3.4,12.9-3.4c4.9,0,9.2,1.1,12.8,3.2c3.6,2.2,6.4,5.2,8.3,9.1c1.9,3.9,2.9,8.5,2.9,13.7v3.9h-42.3v-8.1H858l-5.9,7.6
			v-4.7c0-3.4-0.5-6.2-1.6-8.4c-1-2.2-2.5-3.9-4.3-5.1c-1.8-1.1-3.9-1.7-6.3-1.7c-2.4,0-4.5,0.6-6.4,1.7c-1.9,1.2-3.3,2.9-4.4,5.2
			c-1.1,2.3-1.6,5-1.6,8.3v4.7c0,3.2,0.5,5.9,1.6,8.1c1.1,2.2,2.6,3.9,4.5,5.1c2,1.2,4.3,1.8,7,1.8c2,0,3.8-0.3,5.3-1
			c1.5-0.6,2.8-1.5,3.8-2.5c1-1,1.7-2.1,2.1-3.3l0.1-0.3h11.3l-0.1,0.5c-0.4,2-1.2,3.9-2.3,5.8c-1.1,1.9-2.7,3.6-4.6,5.2
			c-1.9,1.5-4.2,2.7-6.8,3.6s-5.6,1.3-9,1.3C835.2,97.8,830.7,96.7,827,94.5z"/>
		<path class="st0" d="M880.1,95.8c-3.2-1.3-5.7-3.2-7.5-5.6c-1.8-2.4-2.9-5.2-3.3-8.4l0-0.4h12l0.1,0.4c0.5,2.2,1.5,4,3.2,5.2
			c1.7,1.2,4.1,1.9,7.2,1.9c2,0,3.7-0.2,5.1-0.7c1.4-0.5,2.5-1.2,3.2-2.1c0.8-0.9,1.1-2.1,1.1-3.3v0c0-1.5-0.5-2.8-1.6-3.7
			c-1-1-2.9-1.7-5.6-2.4l-8.6-1.9c-3.3-0.7-6-1.8-8.3-3.1c-2.2-1.3-3.9-2.9-5-4.9c-1.1-1.9-1.7-4.2-1.7-6.8v0c0-3.2,0.9-5.9,2.6-8.3
			c1.7-2.4,4.2-4.2,7.3-5.6c3.1-1.3,6.8-2,10.9-2c4.3,0,8,0.7,11,2.1c3.1,1.4,5.4,3.4,7.1,5.8c1.7,2.4,2.6,5.1,2.7,8.1l0,0.5h-11.3
			l0-0.4c-0.3-2.1-1.2-3.8-2.8-5.2c-1.6-1.4-3.9-2-6.7-2c-1.8,0-3.3,0.3-4.7,0.8c-1.3,0.5-2.3,1.3-3,2.2c-0.7,0.9-1,2.1-1,3.3v0
			c0,1,0.2,1.9,0.7,2.6s1.3,1.5,2.3,2c1.1,0.6,2.5,1.1,4.3,1.5l8.6,1.9c5.4,1.2,9.2,2.9,11.5,5.2c2.3,2.2,3.4,5.2,3.4,9v0
			c0,3.3-0.9,6.1-2.8,8.6c-1.9,2.5-4.4,4.4-7.7,5.7s-7,2-11.3,2C887.2,97.8,883.4,97.1,880.1,95.8z"/>
		<path class="st0" d="M922.8,35.6c-1.3-1.3-2-2.9-2-4.7c0-1.9,0.7-3.4,2-4.7c1.3-1.3,2.9-1.9,4.8-1.9c1.9,0,3.5,0.6,4.8,1.9
			c1.3,1.3,2,2.9,2,4.7c0,1.8-0.7,3.4-2,4.7c-1.3,1.3-2.9,2-4.8,2C925.7,37.6,924.1,36.9,922.8,35.6z M921.5,45h12.2v51.8h-12.2V45z
			"/>
		<path class="st0" d="M955.4,113c-3.4-1.3-6.1-3-8.1-5.2c-2-2.2-3.3-4.6-3.8-7.3l-0.1-0.4h11.9l0.2,0.4c0.7,1.5,2,2.7,4,3.7
			c2,1,4.6,1.5,7.7,1.5c4,0,7-1,9.1-2.9c2.1-2,3.2-4.6,3.2-7.9v-7.5h-0.2c-0.9,1.9-2.2,3.5-3.8,4.8c-1.6,1.3-3.4,2.4-5.5,3.1
			c-2.1,0.7-4.4,1.1-6.9,1.1c-4.3,0-8.1-1.1-11.3-3.2c-3.2-2.1-5.7-5.1-7.4-9c-1.7-3.9-2.6-8.5-2.6-13.9v0c0-5.5,0.9-10.2,2.7-14.1
			c1.8-3.9,4.3-7,7.5-9.1s7-3.2,11.4-3.2c2.4,0,4.7,0.4,6.7,1.2s3.8,2,5.4,3.4c1.5,1.5,2.8,3.2,3.8,5.2h0.3V45h12.2v50.3
			c0,3.9-1,7.3-3,10.3c-2,2.9-4.8,5.2-8.4,6.9c-3.6,1.6-8,2.4-13,2.4C962.8,114.9,958.8,114.2,955.4,113z M973.6,85.1
			c1.9-1.4,3.4-3.3,4.4-5.7c1.1-2.5,1.6-5.4,1.6-8.7v0c0-3.4-0.5-6.3-1.6-8.7c-1.1-2.5-2.6-4.4-4.4-5.7c-1.9-1.3-4.1-2-6.6-2
			c-2.6,0-4.9,0.7-6.8,2c-1.9,1.3-3.4,3.2-4.4,5.7c-1,2.4-1.6,5.4-1.6,8.7v0c0,3.4,0.5,6.3,1.6,8.8c1,2.5,2.5,4.4,4.4,5.7
			c1.9,1.3,4.2,2,6.8,2C969.5,87.1,971.7,86.4,973.6,85.1z"/>
		<path class="st0" d="M1001.7,45h12.1v8.1h0.3c1.3-2.8,3.3-5,6-6.7c2.7-1.7,5.9-2.5,9.8-2.5c5.7,0,10.1,1.7,13.2,5.2
			c3.1,3.5,4.7,8.2,4.7,14.2v33.5h-12.2V65.7c0-3.7-0.9-6.5-2.6-8.5c-1.7-2-4.3-3-7.8-3c-2.3,0-4.3,0.5-6.1,1.6
			c-1.7,1.1-3.1,2.5-4,4.4c-0.9,1.9-1.4,4.1-1.4,6.6v30h-12.1V45z"/>
		<path class="st0" d="M1066.9,94.5c-3.7-2.2-6.6-5.3-8.6-9.3c-2-4-3-8.7-3-14.2v0c0-5.4,1-10.2,3-14.2s4.8-7.2,8.4-9.4
			c3.6-2.2,7.9-3.4,12.9-3.4c4.9,0,9.2,1.1,12.8,3.2c3.6,2.2,6.4,5.2,8.3,9.1c1.9,3.9,2.9,8.5,2.9,13.7v3.9h-42.3v-8.1h36.5
			l-5.9,7.6v-4.7c0-3.4-0.5-6.2-1.6-8.4c-1-2.2-2.5-3.9-4.3-5.1c-1.8-1.1-3.9-1.7-6.3-1.7c-2.4,0-4.5,0.6-6.4,1.7
			c-1.9,1.2-3.3,2.9-4.4,5.2c-1.1,2.3-1.6,5-1.6,8.3v4.7c0,3.2,0.5,5.9,1.6,8.1c1.1,2.2,2.6,3.9,4.5,5.1c2,1.2,4.3,1.8,7,1.8
			c2,0,3.8-0.3,5.3-1c1.5-0.6,2.8-1.5,3.8-2.5c1-1,1.7-2.1,2.1-3.3l0.1-0.3h11.3l-0.1,0.5c-0.4,2-1.2,3.9-2.3,5.8
			c-1.1,1.9-2.7,3.6-4.6,5.2c-1.9,1.5-4.2,2.7-6.8,3.6s-5.6,1.3-9,1.3C1075,97.8,1070.6,96.7,1066.9,94.5z"/>
		<path class="st0" d="M1111.4,45h12.1v8.9h0.3c0.8-3.1,2.2-5.6,4.3-7.3c2.1-1.8,4.6-2.7,7.6-2.7c0.7,0,1.5,0,2.1,0.1
			s1.3,0.2,1.7,0.3v11c-0.5-0.2-1.2-0.4-2.1-0.5c-0.9-0.1-1.9-0.2-2.9-0.2c-2.3,0-4.2,0.5-5.9,1.4s-2.9,2.3-3.8,4.1
			c-0.9,1.8-1.3,4-1.3,6.5v30h-12.1V45z"/>
	</g>
</g>
<rect x="1.3" y="-0.3" class="st1" width="1254" height="125"/>
<g>
	<g>
		<path class="st0" d="M465.9,106.8c-0.3-1.7-0.6-3-0.8-4c-0.2-0.9-0.6-1.7-1.1-2.1c-0.5-0.5-1.2-0.9-2.2-1.2c-1-0.3-2.4-0.6-4.2-1
			c-0.6-0.1-0.9-0.5-0.9-1.1c0-0.6,0.3-1,1-1.1c1.8-0.3,3.2-0.6,4.1-0.9s1.7-0.7,2.2-1.2c0.5-0.5,0.8-1.2,1.1-2.2
			c0.2-1,0.5-2.3,0.8-4c0.1-0.7,0.5-1,1-1c0.6,0,1,0.3,1.1,1c0.3,1.7,0.6,3,0.8,3.9c0.2,0.9,0.6,1.7,1.1,2.1
			c0.5,0.5,1.2,0.9,2.2,1.2c1,0.3,2.4,0.6,4.1,1c0.6,0.1,0.9,0.5,0.9,1.1c0,0.6-0.3,0.9-1,1.1c-1.8,0.3-3.1,0.6-4.1,0.9
			s-1.7,0.7-2.2,1.1s-0.8,1.2-1.1,2.2c-0.2,1-0.5,2.3-0.8,4c-0.1,0.7-0.5,1-1.1,1C466.4,107.8,466.1,107.5,465.9,106.8z
			 M510.8,104.6c-4.4,1.2-8.9,1.1-13.4-0.2c-4.5-1.4-8.8-4.1-12.8-8.1l-21.7-21.7c-1.6-1.6-2.4-3.3-2.4-5.3c0-2,0.7-3.7,2.2-5.1
			c0.4-0.4,0.9-0.8,1.5-1.1c0.5-0.3,1.1-0.4,1.6-0.5l-2-2c-1.5-1.5-2.3-3.2-2.3-5.1s0.7-3.6,2.2-5.1c0.8-0.8,1.8-1.3,2.9-1.4
			c-0.9-1.5-1.3-3-1.1-4.6c0.2-1.6,0.9-3,2.2-4.2c1.3-1.3,2.7-2,4.3-2.2c1.6-0.2,3.1,0.2,4.6,1.1c0.1-0.6,0.2-1.1,0.5-1.6
			c0.3-0.5,0.6-1,1.1-1.5c1.6-1.6,3.4-2.4,5.3-2.4c2,0,3.8,0.8,5.4,2.4l18.3,18.3c0.1,0.1,0.3,0.2,0.4,0c0.1-0.1,0.1-0.2,0-0.3
			l-1.6-3.9c-0.5-1.4-0.7-2.7-0.4-4c0.3-1.3,0.9-2.3,1.8-3.2c1.5-1.5,3.1-2.2,5.1-2.2c1.9,0,3.6,0.7,5.1,2.2
			c0.9,0.9,1.6,1.9,2.2,3.2l7.9,16.8c3.1,6.6,4.3,12.8,3.6,18.6c-0.8,5.7-3.5,10.9-8.2,15.6C519.3,100.9,515.2,103.4,510.8,104.6z
			 M524.9,80.6c0.8-4.3-0.2-9.3-2.8-15l-8-17.2c-0.3-0.7-0.7-1.1-1.2-1.3c-0.5-0.2-0.9-0.2-1.5,0c-0.5,0.2-0.8,0.6-1,1.1
			c-0.2,0.5-0.2,1.1,0.1,1.7l4.4,11.5c0.4,0.9,0.5,1.8,0.3,2.5c-0.2,0.7-0.5,1.4-1,1.9c-0.6,0.6-1.4,1-2.2,1c-0.9,0-1.7-0.3-2.5-1.1
			l-24.6-24.6c-0.4-0.4-0.9-0.7-1.4-0.7c-0.5,0-1,0.2-1.4,0.6c-0.4,0.4-0.6,0.9-0.6,1.4c0,0.5,0.2,1,0.6,1.4l17.3,17.3
			c0.6,0.6,0.8,1.2,0.8,2s-0.3,1.4-0.9,2c-0.5,0.6-1.2,0.8-2,0.8s-1.4-0.2-2-0.8l-20.4-20.5c-0.4-0.4-0.9-0.6-1.5-0.7
			c-0.5,0-1,0.2-1.4,0.6c-0.4,0.4-0.6,0.9-0.6,1.4c0,0.5,0.2,1,0.7,1.4l20.9,20.9c0.6,0.6,0.8,1.3,0.8,2c0,0.8-0.3,1.4-0.8,2
			c-0.6,0.6-1.2,0.8-2,0.9c-0.8,0-1.4-0.3-2-0.8l-17.8-17.8c-0.4-0.4-0.9-0.7-1.4-0.7c-0.5,0-1,0.2-1.4,0.6s-0.6,0.9-0.6,1.4
			c0,0.5,0.2,1,0.7,1.4l19.1,19.1c0.6,0.6,0.8,1.2,0.8,2c0,0.8-0.3,1.4-0.8,2c-0.5,0.5-1.2,0.8-2,0.8c-0.8,0-1.5-0.2-2-0.8
			l-12.7-12.7c-0.4-0.4-0.9-0.6-1.4-0.6s-1,0.2-1.4,0.6c-0.4,0.4-0.6,0.9-0.6,1.4c0,0.5,0.2,1,0.7,1.4l20.7,20.7
			c3.3,3.3,6.6,5.5,10.1,6.6c3.5,1.1,6.9,1.3,10.2,0.3c3.3-0.9,6.5-2.9,9.4-5.8C521.9,89,524.1,85,524.9,80.6z M487.6,26.9
			c-0.2-1.2-0.4-2.2-0.6-2.9c-0.2-0.7-0.5-1.2-0.8-1.6s-0.9-0.6-1.6-0.8c-0.7-0.2-1.7-0.4-3-0.7c-0.5-0.1-0.8-0.4-0.8-0.9
			c0-0.5,0.3-0.8,0.8-0.9c1.3-0.2,2.3-0.4,3-0.6c0.7-0.2,1.2-0.5,1.6-0.8s0.6-0.9,0.8-1.6c0.2-0.7,0.4-1.7,0.6-2.9
			c0.1-0.5,0.4-0.8,0.9-0.8c0.5,0,0.8,0.3,0.9,0.8c0.2,1.2,0.4,2.2,0.6,2.9c0.2,0.7,0.4,1.2,0.8,1.6c0.3,0.3,0.9,0.6,1.6,0.8
			c0.7,0.2,1.7,0.4,3,0.7c0.5,0.1,0.8,0.4,0.8,0.9c0,0.5-0.3,0.8-0.8,0.9c-1.7,0.3-2.9,0.6-3.7,0.9c-0.7,0.3-1.2,0.8-1.5,1.5
			c-0.3,0.7-0.5,1.9-0.8,3.6c-0.1,0.5-0.4,0.8-0.9,0.8C487.9,27.7,487.6,27.4,487.6,26.9z M494.4,31.2c1.9,0,3.7,0.8,5.3,2.4
			l10.9,10.9l-4.1,5l-10.8-10.8c-0.5-0.5-1-0.7-1.6-0.8c-0.6,0-1.1,0.2-1.5,0.6c-0.4,0.4-0.7,1-0.6,1.6c0,0.6,0.2,1.2,0.6,1.7
			l-5.2-5.3c0.1-0.5,0.3-1.1,0.5-1.6c0.3-0.5,0.6-1,1.1-1.4C490.7,32,492.5,31.2,494.4,31.2z M512.3,36.6c-0.2-0.2-0.4-0.5-0.4-0.8
			c-0.3-2-0.5-3.5-0.8-4.6c-0.3-1.1-0.7-1.9-1.3-2.5s-1.4-1-2.6-1.3c-1.2-0.3-2.8-0.7-4.9-1.1c-0.7-0.1-1.1-0.5-1.1-1.2
			c0-0.3,0.1-0.6,0.3-0.8c0.2-0.2,0.5-0.4,0.8-0.4c2.1-0.3,3.7-0.6,4.9-0.8c1.2-0.3,2-0.7,2.6-1.3c0.6-0.6,1-1.4,1.3-2.6
			c0.3-1.2,0.5-2.7,0.8-4.7c0.1-0.7,0.5-1.1,1.2-1.1c0.8,0,1.2,0.4,1.2,1.1c0.2,2,0.5,3.5,0.7,4.6c0.3,1.1,0.7,1.9,1.3,2.5
			c0.6,0.6,1.5,1,2.7,1.3c1.2,0.3,2.8,0.7,4.8,1.1c0.7,0.1,1.1,0.5,1.1,1.2c0,0.7-0.4,1.1-1.2,1.2c-2,0.3-3.6,0.6-4.7,0.9
			c-1.2,0.3-2,0.7-2.6,1.3c-0.6,0.6-1,1.4-1.3,2.5c-0.3,1.1-0.5,2.7-0.7,4.6c-0.1,0.8-0.5,1.2-1.2,1.2
			C512.8,36.9,512.5,36.8,512.3,36.6z M522.5,101.8c-3.8,1.3-7.7,1.5-11.5,0.7l7.2-6.3c3.6-0.7,7-2.7,10.3-5.9
			c3.7-3.6,5.9-7.6,6.6-11.9c0.8-4.3-0.2-9.3-2.8-15l-7.8-16.9c-0.5-0.9-1.1-1.4-2-1.4c-0.6,0-1.1,0.2-1.5,0.6
			c-0.4,0.4-0.6,0.8-0.6,1.3c0,0.4,0.1,0.9,0.3,1.3l-4.9-1.9c0-0.3,0-0.6,0-1c0-1.3,0.2-2.4,0.7-3.2c0.5-0.9,1-1.5,1.8-2
			c0.7-0.5,1.4-0.9,2.2-1.1c0.8-0.2,1.4-0.3,2-0.3c1.6,0,3.1,0.4,4.4,1.4c1.3,1,2.4,2.3,3.1,3.9l7.9,16.8c3.2,6.7,4.4,12.9,3.6,18.6
			c-0.8,5.7-3.5,10.9-8.2,15.6C529.9,98.2,526.3,100.5,522.5,101.8z"/>
	</g>
</g>
</svg>
