<?xml version="1.0" encoding="utf-8"?>
<!-- Generator: Adobe Illustrator 27.0.0, SVG Export Plug-In . SVG Version: 6.00 Build 0)  -->
<svg version="1.1" id="Layer_2_00000037653720698479477510000007721385518184267693_"
	 xmlns="http://www.w3.org/2000/svg" xmlns:xlink="http://www.w3.org/1999/xlink" x="0px" y="0px" viewBox="0 0 1254 125"
	 style="enable-background:new 0 0 1254 125;" xml:space="preserve">
<style type="text/css">
	.st0{fill:#616ECE;}
	.st1{fill:none;}
</style>
<g>
	<path class="st0" d="M0,26.9h24c13.6,0,22.1,7.1,22.1,17.8v0.1c0,8.7-5.7,15.5-14.4,17.1v0.3C41.7,63.5,50,70,50,80.7v0.1
		c0,11.9-8.6,19.4-25.8,19.4H0V26.9z M4,30.6v30.1h18.8c11.7,0,19.3-5.8,19.3-15.4v-0.1c0-8.9-7.1-14.6-18.6-14.6L4,30.6L4,30.6z
		 M4,64.4v32.3h19.7c15,0,22.1-6.1,22.1-15.9v-0.1c0-10.2-8.8-16.3-22.4-16.3L4,64.4L4,64.4z"/>
	<path class="st0" d="M57.7,73.1L57.7,73.1c0-17.4,9.5-28.4,23.9-28.4s23.5,10.9,23.5,26.9v2H61.7c0.2,14.7,8.2,23.9,20.5,23.9
		c8.7,0,15.5-4.1,17.7-9.6l0.2-0.3h4l-0.2,0.4c-2.5,7.4-10.7,13.1-21.8,13.1C67.3,101.1,57.8,90.2,57.7,73.1L57.7,73.1z M61.8,70.2
		h39.5c-0.6-13.8-8.3-22-19.6-22C70.4,48.3,62.4,56.6,61.8,70.2z"/>
	<path class="st0" d="M119.6,87.5V49h-9v-3.5h9V31.3h4v14.2h13.3V49h-13.3v37.9c0,7.1,2.6,10.2,9.5,10.2c1.5,0,2.7-0.1,3.8-0.2v3.5
		c-1.4,0.2-2.6,0.4-4.2,0.4C123.2,100.6,119.5,96.7,119.6,87.5L119.6,87.5z"/>
	<path class="st0" d="M150.7,87.5V49h-9v-3.5h9V31.3h4v14.2H168V49h-13.3v37.9c0,7.1,2.6,10.2,9.5,10.2c1.5,0,2.7-0.1,3.8-0.2v3.5
		c-1.4,0.2-2.6,0.4-4.2,0.4C154.4,100.6,150.7,96.7,150.7,87.5L150.7,87.5z"/>
	<path class="st0" d="M174.7,73.1L174.7,73.1c0-17.4,9.5-28.4,23.9-28.4s23.5,10.9,23.5,26.9v2h-43.4c0.2,14.7,8.2,23.9,20.5,23.9
		c8.7,0,15.5-4.1,17.7-9.6l0.2-0.3h4l-0.2,0.4c-2.5,7.4-10.7,13.1-21.8,13.1C184.2,101.1,174.7,90.2,174.7,73.1L174.7,73.1z
		 M178.7,70.2h39.5c-0.6-13.8-8.3-22-19.6-22C187.3,48.3,179.3,56.6,178.7,70.2z"/>
	<path class="st0" d="M233.2,45.5h3.9v10.2h0.4c2.2-6.9,7.8-11,15.2-11c2.4,0,4.2,0.2,6.1,0.8v3.9c-2.1-0.7-4-1-6.4-1
		c-8.7,0-15.3,7.5-15.3,17.4v34.4h-3.9V45.5z"/>
	<path class="st0" d="M289.5,26.9h23.8c14.2,0,23.6,8.5,23.6,21.8v0.1c0,13.3-9.4,21.9-23.6,21.9h-19.8v29.6h-4V26.9z M293.5,30.6
		V67h19.2c12.4,0,20.1-6.9,20.1-18.2v-0.1c0-11.3-7.7-18.1-20.1-18.1H293.5z"/>
	<path class="st0" d="M347.7,45.5h3.9v10.2h0.4c2.2-6.9,7.8-11,15.2-11c2.4,0,4.2,0.2,6.1,0.8v3.9c-2.1-0.7-4-1-6.4-1
		c-8.7,0-15.3,7.5-15.3,17.4v34.4h-3.9V45.5z"/>
	<path class="st0" d="M376.5,73L376.5,73c0-17.4,9.5-28.3,24.4-28.3s24.4,10.9,24.4,28.2V73c0,17.2-9.5,28.2-24.4,28.2
		C386,101.1,376.5,90.2,376.5,73z M421.3,73L421.3,73c0-15.1-7.9-24.7-20.4-24.7s-20.4,9.6-20.4,24.6V73c0,15,7.9,24.5,20.4,24.5
		S421.3,87.9,421.3,73z"/>
	<path class="st0" d="M433.7,73L433.7,73c0-16.7,9.6-28.3,23.4-28.3c9.3,0,17,5.5,20.1,14.2h0.4V23.7h3.9v76.5h-3.9V86.4h-0.4
		c-3,8.9-10.7,14.6-20.1,14.6C443.3,101.1,433.7,89.6,433.7,73z M477.7,73L477.7,73c0-14.7-8.1-24.7-20-24.7s-20,10-20,24.6V73
		c0,14.6,8.1,24.5,20,24.5S477.7,87.6,477.7,73z"/>
	<path class="st0" d="M495.5,81.3V45.5h4v34.7c0,10.7,6.2,17.3,16.5,17.3c11,0,18.3-7.9,18.3-19.3V45.5h4v54.7h-4V88.9h-0.4
		c-2.6,7.6-9.6,12.2-18.7,12.2C503.1,101.1,495.5,93.4,495.5,81.3L495.5,81.3z"/>
	<path class="st0" d="M549.4,72.8L549.4,72.8c0-17.2,9.4-28.1,24.1-28.1c11.5,0,19.9,6.7,21.8,16.1l-0.1,0.1l-3.9,0.1l-0.1-0.1
		c-1.9-7.4-8.7-12.5-17.7-12.5c-12.3,0-20.1,9.6-20.1,24.4v0.1c0,15,7.9,24.8,20.1,24.8c9,0,15.8-4.6,17.6-11.8l0.1-0.2l3.9-0.1
		l-0.1,0.3c-2,9.3-10,15.4-21.6,15.4C558.7,101.1,549.4,90.1,549.4,72.8z"/>
	<path class="st0" d="M609.7,87.5V49h-9v-3.5h9V31.3h4v14.2H627V49h-13.3v37.9c0,7.1,2.6,10.2,9.5,10.2c1.5,0,2.7-0.1,3.8-0.2v3.5
		c-1.4,0.2-2.6,0.4-4.2,0.4C613.4,100.6,609.7,96.7,609.7,87.5z"/>
	<path class="st0" d="M633.2,86.9h4.1c1.5,6.7,7.9,10.8,17.1,10.8s16-5,16-11.6V86c0-6-4.2-9.1-13.8-11.4l-6.4-1.5
		c-10-2.3-15-6.3-15-13.6v-0.1c0-8.5,8.6-14.7,18.9-14.7s18,5.3,19.4,13.6h-3.9c-1.2-6.1-7.4-10.1-15.5-10.1s-14.9,4.8-14.9,11.1
		v0.1c0,5.4,4.1,8.3,12.5,10.3l6.4,1.5c10.9,2.5,16.3,6.6,16.3,14.5v0.1c0,8.9-8.8,15.3-20,15.3C642.6,101.1,634.4,95.7,633.2,86.9
		L633.2,86.9z"/>
	<path class="st0" d="M686.9,96.9c0-2.1,1.6-3.8,3.8-3.8s3.8,1.6,3.8,3.8s-1.7,3.7-3.8,3.7S686.9,99,686.9,96.9z"/>
</g>
<rect class="st1" width="1254" height="125"/>
</svg>
