<?xml version="1.0" encoding="utf-8"?>
<!-- Generator: Adobe Illustrator 27.0.0, SVG Export Plug-In . SVG Version: 6.00 Build 0)  -->
<svg version="1.1" id="Layer_2_00000107590029190807095930000011750702079751561897_"
	 xmlns="http://www.w3.org/2000/svg" xmlns:xlink="http://www.w3.org/1999/xlink" x="0px" y="0px" viewBox="0 0 1254 125"
	 style="enable-background:new 0 0 1254 125;" xml:space="preserve">
<style type="text/css">
	.st0{fill:#616ECE;}
	.st1{fill:none;}
</style>
<g id="Layer_1-2">
	<g>
		<g>
			<g>
				<path class="st0" d="M0,26.5h43.5v6.3H7v27.5h33.6v6.2H7v33.3H0C0,99.8,0,26.5,0,26.5z"/>
				<path class="st0" d="M50.9,72.5L50.9,72.5c0-17.5,9.6-28.3,24.9-28.3s24.9,10.8,24.9,28.2v0.1c0,17.4-9.6,28.3-24.9,28.3
					C60.5,100.7,50.9,89.9,50.9,72.5z M93.8,72.5L93.8,72.5c0-13.9-6.7-22.3-18-22.3s-18,8.4-18,22.2v0.1c0,13.8,6.7,22.3,18,22.3
					C87.1,94.7,93.8,86.3,93.8,72.5z"/>
				<path class="st0" d="M110.9,45.1h6.7v9h0.7c2.1-6.3,7.5-9.9,14.9-9.9c2,0,3.8,0.2,5.1,0.5v6.6c-2-0.5-3.8-0.7-5.8-0.7
					c-8.5,0-14.8,6.3-14.8,15.1v34.2H111L110.9,45.1L110.9,45.1L110.9,45.1z"/>
				<path class="st0" d="M170.3,26.5h7v32.6h42.9V26.5h7v73.3h-7V65.4h-42.9v34.4h-7V26.5z"/>
				<path class="st0" d="M240.5,80.6V45h6.7v33.9c0,10.2,4.7,15.8,14.1,15.8c10.2,0,16.3-6.8,16.3-17.1V45.1h6.7v54.7h-6.7v-9.6H277
					c-2.7,6.6-8.8,10.5-17.3,10.5C247.4,100.7,240.5,93.2,240.5,80.6z"/>
				<path class="st0" d="M297.4,45.1h6.7v9.7h0.7c2.3-6.6,8-10.6,15.5-10.6s13.2,4.2,15.5,10.8h0.7c2.8-6.6,9.2-10.8,17.1-10.8
					c11,0,17.3,6.6,17.3,18.2v37.5h-6.8V64c0-8.9-4.3-13.7-12.6-13.7s-14.1,6.5-14.1,14.9v34.7h-6.7V63.3c0-7.9-5-13-12.6-13
					s-14,7.1-14,16.1V100h-6.7V45.1z"/>
				<path class="st0" d="M380.1,84.7L380.1,84.7c0-9.6,7.1-15.1,19.7-16l17.1-1.1v-5.1c0-8-4.9-12.3-13.7-12.3
					c-7.4,0-12.7,3-14.1,8.4l-0.1,0.1h-6.7l0.1-0.2c1.4-8.7,9.7-14.3,21-14.3c12.8,0,20.3,6.7,20.3,18.2v37.4h-6.8v-9.4h-0.6
					c-3.3,6.5-9.8,10.3-17.9,10.3C387.8,100.7,380.1,94.5,380.1,84.7L380.1,84.7z M399.6,94.8c9.8,0,17.2-6.7,17.2-15.4V73
					l-16.2,1.1c-9.3,0.6-13.8,4.1-13.8,10.3v0.1C386.9,90.9,392.3,94.8,399.6,94.8z"/>
				<path class="st0" d="M436.3,45.1h6.7v9.6h0.7c2.9-6.6,8.8-10.5,17.3-10.5c12.2,0,19.2,7.3,19.2,20.1v35.6h-6.7V66
					c0-10.4-4.7-15.8-14.2-15.8s-16.2,6.8-16.2,17.1v32.5h-6.8V45.1z"/>
			</g>
			<g>
				<path class="st0" d="M600.7,62.6L600.7,62.6c0-23.6,12.4-38.3,32.3-38.3c15.1,0,27.3,10,29.3,23.9l-0.1,0.1h-7l-0.1-0.1
					c-2.1-10.3-11.2-17.4-22.2-17.4c-15.3,0-25.2,12.4-25.2,31.7v0.1c0,19.4,9.8,31.7,25.2,31.7c11.3,0,20.1-6.3,22.2-15.9l0.1-0.1
					l7-0.1l0.1,0.1c-2.1,13.4-13.7,22.4-29.2,22.4C613.1,100.7,600.7,86.1,600.7,62.6L600.7,62.6z"/>
				<path class="st0" d="M669.4,84.1L669.4,84.1c0-9.6,7.1-15.1,19.7-16l17.1-1.1v-5.1c0-8-4.9-12.3-13.7-12.3
					c-7.4,0-12.7,3-14.1,8.4l-0.1,0.1h-6.8l0.1-0.2c1.4-8.7,9.7-14.3,21-14.3c12.8,0,20.3,6.7,20.3,18.2v37.4h-6.8v-9.4h-0.6
					c-3.3,6.5-9.8,10.3-17.9,10.3C677.1,100.1,669.4,93.9,669.4,84.1z M689,94.2c9.8,0,17.2-6.7,17.2-15.4v-6.4L690,73.5
					c-9.3,0.6-13.8,4.1-13.8,10.3v0.1C676.3,90.3,681.6,94.2,689,94.2z"/>
				<path class="st0" d="M725.6,44.5h6.7v9.6h0.7c2.9-6.6,8.8-10.5,17.3-10.5c12.2,0,19.2,7.3,19.2,20.1v35.6h-6.7V65.4
					c0-10.4-4.7-15.8-14.2-15.8s-16.2,6.8-16.2,17.1v32.5h-6.7L725.6,44.5L725.6,44.5z"/>
				<path class="st0" d="M806.8,25.9h8l27,64.2h0.6l27-64.2h8v73.3h-6.5V39.4h-0.5l-25.3,59.8h-6l-25.3-59.8h-0.5v59.8h-6.5V25.9z"
					/>
				<path class="st0" d="M888.1,84.1L888.1,84.1c0-9.6,7.1-15.1,19.7-16l17.1-1.1v-5.1c0-8-4.9-12.3-13.7-12.3
					c-7.4,0-12.7,3-14.1,8.4l-0.1,0.1h-6.7l0.1-0.2c1.4-8.7,9.7-14.3,21-14.3c12.8,0,20.3,6.7,20.3,18.2v37.4h-6.8v-9.4h-0.6
					c-3.3,6.5-9.8,10.3-17.9,10.3C895.8,100.1,888.1,93.9,888.1,84.1z M907.7,94.2c9.8,0,17.2-6.7,17.2-15.4v-6.4l-16.2,1.1
					c-9.3,0.6-13.8,4.1-13.8,10.3v0.1C894.9,90.3,900.3,94.2,907.7,94.2z"/>
				<path class="st0" d="M944.8,22.7h6.7v47.4h0.7l26.6-25.6h8.3l-24.7,23.2l25.8,31.6h-8.5l-22.1-27l-6.1,5.8v21.2h-6.7L944.8,22.7
					L944.8,22.7L944.8,22.7z"/>
				<path class="st0" d="M990.7,72L990.7,72c0-17.2,9.6-28.5,24.2-28.5c14.6,0,23.7,11,23.7,27.2v2.8h-41.1
					c0.2,12.8,7.2,20.5,18.1,20.5c8,0,13.5-3.8,15.2-8l0.2-0.4h6.8l-0.2,0.4c-2.1,7.4-10.1,14-22.2,14
					C1000.1,100.1,990.7,89.2,990.7,72z M997.6,68.1h34.3c-0.8-12.1-7.5-18.6-16.9-18.6C1005.4,49.5,998.4,56.3,997.6,68.1z"/>
			</g>
			<path class="st0" d="M526.2,84l-5.9,16.3c-0.7,1.8-2.4,2.4-3.9,1.9c-1.6-0.5-2.4-2.3-1.8-3.9l6-16.5l6-16.4V50.5
				c0-0.7-0.4-1.3-1-1.6l-20.2-10.8c-1.5-0.8-2.1-2.6-1.3-4.1s2.6-2,4.1-1.2l19.5,10.3c2.2,1.1,4.3,1.7,6.5,1.7s4.3-0.5,6.4-1.7
				l19.5-10.3c1.5-0.8,3.3-0.2,4.1,1.2c0.8,1.5,0.2,3.3-1.3,4.1l-20.2,10.8c-0.6,0.3-1,0.9-1,1.6v14.9l6,16.4l6,16.5
				c0.5,1.6-0.2,3.4-1.8,3.9c-1.5,0.5-3.3,0-3.9-1.9L542.1,84l-7.9-12.5L526.2,84L526.2,84z M527.1,33.9c0-3.9,3.2-7,7.1-7
				s7,3.2,7,7s-3.2,7.1-7,7.1C530.2,41.1,527.1,37.9,527.1,33.9z"/>
		</g>
		<rect class="st1" width="1254" height="125"/>
	</g>
</g>
</svg>
