<?xml version="1.0" encoding="utf-8"?>
<!-- Generator: Adobe Illustrator 28.2.0, SVG Export Plug-In . SVG Version: 6.00 Build 0)  -->
<svg version="1.1" id="Layer_2_00000117635318544612459040000006328165770317706430_"
	 xmlns="http://www.w3.org/2000/svg" xmlns:xlink="http://www.w3.org/1999/xlink" x="0px" y="0px" viewBox="0 0 1650 125"
	 style="enable-background:new 0 0 1650 125;" xml:space="preserve">
<style type="text/css">
	.st0{fill:#616ECE;}
</style>
<g>
	<g>
		<path class="st0" d="M-1649.4,93.3c-5.2-3.3-9.2-7.8-12-13.7c-2.8-5.9-4.2-12.8-4.2-20.7v-0.1c0-8,1.4-14.9,4.2-20.8
			c2.8-5.9,6.8-10.4,11.9-13.6s11.2-4.8,18.2-4.8c5.2,0,10,1,14.2,3c4.2,2,7.7,4.8,10.5,8.4c2.8,3.6,4.6,7.8,5.6,12.5l0.1,0.5h-7.2
			l-0.3-0.9c-1-3.4-2.5-6.4-4.6-8.9s-4.7-4.5-7.7-5.9c-3.1-1.4-6.6-2.1-10.6-2.1c-5.5,0-10.3,1.3-14.3,4c-4.1,2.7-7.2,6.4-9.4,11.3
			s-3.3,10.6-3.3,17.2v0.1c0,6.6,1.1,12.3,3.3,17.2c2.2,4.9,5.4,8.7,9.4,11.4c4.1,2.7,8.8,4.1,14.3,4.1c3.9,0,7.4-0.7,10.5-2.1
			c3.1-1.4,5.7-3.4,7.8-6s3.7-5.7,4.7-9.3l0.2-0.5h7.2l-0.1,0.5c-0.9,4.8-2.8,9-5.6,12.6c-2.8,3.6-6.3,6.4-10.5,8.4
			c-4.2,2-8.9,3-14.2,3C-1638.2,98.2-1644.2,96.6-1649.4,93.3z"/>
		<path class="st0" d="M-1584.6,96c-2.7-1.4-4.9-3.3-6.4-5.7c-1.5-2.4-2.3-5.3-2.3-8.5v-0.1c0-3.1,0.8-5.8,2.3-8.1
			c1.5-2.2,3.8-4,6.7-5.4c2.9-1.3,6.5-2.1,10.7-2.3l20.6-1.3V70l-19.7,1.3c-4.3,0.3-7.6,1.4-9.9,3.1c-2.3,1.8-3.5,4.2-3.5,7.2v0.1
			c0,3,1.2,5.5,3.5,7.3c2.3,1.8,5.3,2.8,9,2.8c3.2,0,6.1-0.7,8.7-2c2.6-1.4,4.6-3.2,6.2-5.6c1.5-2.4,2.3-5,2.3-7.9V60.1
			c0-4-1.2-7.1-3.6-9.3s-5.7-3.4-10-3.4c-4,0-7.2,0.9-9.7,2.7s-4.1,4.3-4.7,7.4l-0.2,0.5h-6.7l0.1-0.6c0.4-3.2,1.4-6,3.2-8.4
			s4.2-4.3,7.3-5.7c3.1-1.4,6.6-2.1,10.8-2.1c4.2,0,7.8,0.7,10.8,2.2s5.4,3.6,7.1,6.4c1.7,2.7,2.5,6,2.5,9.7V97h-7V86.9h-0.2
			c-1,2.2-2.4,4.1-4.3,5.8c-1.9,1.7-4,2.9-6.4,3.9s-5,1.4-7.7,1.4C-1578.7,98-1581.9,97.3-1584.6,96z"/>
		<path class="st0" d="M-1537.9,42.2h7v9.4h0.2c1.4-3,3.6-5.5,6.6-7.4s6.7-2.9,11.1-2.9c6.1,0,10.8,1.8,14.2,5.5
			c3.4,3.7,5.1,8.7,5.1,15.2v35h-7V63c0-5.1-1.2-9-3.7-11.7s-6-4-10.7-4c-3.2,0-6,0.7-8.4,2.2c-2.4,1.4-4.2,3.4-5.6,6
			c-1.3,2.5-2,5.5-2,9V97h-7V42.2H-1537.9z"/>
		<path class="st0" d="M-1458.8,20.9h8.2l28.3,67.1h0.3l28.3-67.1h8.3V97h-6.8V34.4h-3.4l8.1-11.9L-1419,97h-6.3l-31.4-74.5
			l8.1,11.9h-3.4V97h-6.7V20.9H-1458.8z"/>
		<path class="st0" d="M-1365.6,96c-2.7-1.4-4.9-3.3-6.4-5.7c-1.5-2.4-2.3-5.3-2.3-8.5v-0.1c0-3.1,0.8-5.8,2.3-8.1
			c1.5-2.2,3.8-4,6.7-5.4c2.9-1.3,6.5-2.1,10.7-2.3l20.6-1.3V70l-19.7,1.3c-4.3,0.3-7.6,1.4-9.9,3.1c-2.3,1.8-3.5,4.2-3.5,7.2v0.1
			c0,3,1.2,5.5,3.5,7.3s5.3,2.8,9,2.8c3.2,0,6.1-0.7,8.7-2c2.6-1.4,4.6-3.2,6.2-5.6c1.5-2.4,2.3-5,2.3-7.9V60.1c0-4-1.2-7.1-3.6-9.3
			c-2.4-2.2-5.7-3.4-10-3.4c-4,0-7.2,0.9-9.7,2.7s-4.1,4.3-4.7,7.4l-0.1,0.5h-6.7l0.1-0.6c0.4-3.2,1.4-6,3.2-8.4
			c1.8-2.4,4.2-4.3,7.3-5.7s6.6-2.1,10.8-2.1c4.2,0,7.8,0.7,10.8,2.2s5.4,3.6,7.1,6.4c1.7,2.7,2.5,6,2.5,9.7V97h-7V86.9h-0.2
			c-1,2.2-2.4,4.1-4.3,5.8c-1.9,1.7-4,2.9-6.4,3.9c-2.4,1-5,1.4-7.7,1.4C-1359.7,98-1362.9,97.3-1365.6,96z"/>
		<path class="st0" d="M-1318.2,20.9h6.9V97h-6.9V20.9z M-1313,68h1.9l27-25.9h8.5l-26.4,25.3h-0.5l-10.5,9.9V68z M-1305.6,69.5
			l4.6-4.6l26,32.1h-8.2L-1305.6,69.5z"/>
		<path class="st0" d="M-1259.5,94.5c-3.7-2.3-6.6-5.6-8.6-9.8c-2-4.2-3-9.2-3-15v-0.1c0-5.7,1-10.7,3-15s4.9-7.6,8.5-10
			c3.7-2.4,7.9-3.5,12.8-3.5c4.9,0,9.1,1.1,12.7,3.4c3.6,2.3,6.3,5.5,8.3,9.6s2.9,8.9,2.9,14.4v2.7h-44.8v-5.5h41.4l-3.5,5v-2.6
			c0-4.5-0.7-8.3-2.2-11.4c-1.5-3.1-3.5-5.4-6-7s-5.5-2.4-8.8-2.4c-3.3,0-6.3,0.8-8.9,2.4c-2.6,1.6-4.7,4-6.1,7.1
			c-1.5,3.1-2.2,6.8-2.2,11.2v2.6c0,4.5,0.7,8.3,2.2,11.4s3.6,5.5,6.3,7.2s5.9,2.5,9.5,2.5c2.7,0,5.1-0.4,7.2-1.2
			c2.1-0.8,3.9-2,5.3-3.5c1.4-1.5,2.4-3.3,3-5.3l0.2-0.5h6.9l-0.1,0.5c-0.5,2.3-1.4,4.5-2.7,6.5c-1.3,2-2.9,3.7-4.9,5.2
			s-4.2,2.6-6.8,3.4s-5.3,1.2-8.2,1.2C-1251.4,98-1255.8,96.9-1259.5,94.5z"/>
	</g>
</g>
<g>
	<g>
		<path class="st0" d="M-1182.3,65.5c-0.6,0.6-1.3,0.9-2.2,0.9h-12.7c-0.8,0-1.6-0.3-2.2-0.9s-0.9-1.3-0.9-2.2
			c0-0.8,0.3-1.6,0.9-2.2c0.6-0.6,1.3-0.9,2.2-0.9h12.7c0.8,0,1.6,0.3,2.2,0.9c0.6,0.6,0.9,1.3,0.9,2.2
			C-1181.3,64.2-1181.6,64.9-1182.3,65.5z M-1174.7,42.1c-0.9,0-1.6-0.3-2.2-0.9l-8.9-9c-0.6-0.6-0.9-1.3-0.9-2.2
			c0-0.9,0.3-1.6,0.9-2.2c0.6-0.6,1.4-0.9,2.2-0.9c0.9,0,1.6,0.3,2.2,0.9l8.9,9c0.6,0.6,0.9,1.3,0.9,2.2s-0.3,1.6-0.9,2.2
			C-1173.2,41.8-1173.9,42.1-1174.7,42.1z M-1171.4,87.4c0,0.9-0.3,1.6-0.9,2.2l-9,8.9c-0.6,0.6-1.3,0.9-2.2,0.9s-1.6-0.3-2.2-0.9
			c-0.6-0.6-0.9-1.3-0.9-2.2c0-0.9,0.3-1.6,0.9-2.2l8.9-8.9c0.6-0.6,1.4-0.9,2.2-0.9c0.9,0,1.6,0.3,2.2,0.9
			C-1171.7,85.8-1171.4,86.6-1171.4,87.4z M-1154.1,56.5c0-0.8,0.3-1.3,0.9-1.5c0.6-0.2,1.2-0.1,1.7,0.4l25.4,26.9
			c0.5,0.6,0.6,1.1,0.3,1.7s-0.8,0.9-1.6,0.9l-10.4,0.1l8.6,20c0.2,0.4,0.2,0.8,0,1.2c-0.1,0.4-0.4,0.6-0.7,0.8l-3.9,1.6
			c-0.4,0.1-0.8,0.1-1.2,0c-0.4-0.2-0.6-0.4-0.8-0.8l-8.3-20.4l-7.2,7.3c-0.5,0.5-1.1,0.6-1.8,0.4c-0.7-0.2-1-0.7-1-1.5
			L-1154.1,56.5L-1154.1,56.5z M-1152.5,31.4c-0.6-0.6-0.9-1.3-0.9-2.2V16.5c0-0.9,0.3-1.6,0.9-2.2c0.6-0.6,1.3-0.9,2.2-0.9
			c0.9,0,1.6,0.3,2.2,0.9c0.6,0.6,0.9,1.3,0.9,2.2v12.7c0,0.8-0.3,1.6-0.9,2.2c-0.6,0.6-1.4,0.9-2.2,0.9
			C-1151.2,32.3-1151.9,32-1152.5,31.4z M-1129.4,39.2c0-0.9,0.3-1.6,0.9-2.2l9-9c0.6-0.6,1.4-0.9,2.2-0.9c0.8,0,1.6,0.3,2.2,0.9
			s0.9,1.3,0.9,2.2c0,0.9-0.3,1.6-0.9,2.2l-8.9,9c-0.6,0.6-1.4,0.9-2.2,0.9c-0.9,0-1.6-0.3-2.2-0.9
			C-1129.1,40.9-1129.4,40.1-1129.4,39.2z M-1118.4,61.1c0.6-0.6,1.4-0.9,2.2-0.9h12.7c0.9,0,1.6,0.3,2.2,0.9
			c0.6,0.6,0.9,1.3,0.9,2.2c0,0.8-0.3,1.6-0.9,2.2c-0.6,0.6-1.4,0.9-2.2,0.9h-12.7c-0.8,0-1.5-0.3-2.2-0.9c-0.6-0.6-1-1.3-1-2.2
			C-1119.3,62.5-1119,61.8-1118.4,61.1z"/>
	</g>
</g>
<g>
	<g>
		<path class="st0" d="M19.9,93.2c-5.1-3.3-9-7.8-11.8-13.7c-2.8-5.9-4.2-12.7-4.2-20.6v-0.1c0-7.9,1.4-14.8,4.2-20.7
			c2.8-5.8,6.7-10.4,11.8-13.6c5.1-3.2,11.1-4.8,18-4.8c5.2,0,9.8,1,13.9,3c4.1,2,7.4,4.8,10.1,8.4s4.4,7.7,5.3,12.4l0.1,0.5h-4.1
			l-0.2-0.7c-0.9-3.9-2.5-7.3-4.8-10.3c-2.2-3-5.1-5.3-8.5-7c-3.4-1.7-7.4-2.6-11.8-2.6c-6,0-11.3,1.4-15.7,4.3
			c-4.4,2.9-7.9,7-10.3,12.2S8.1,51.7,8.1,58.8v0.1c0,7.1,1.2,13.3,3.7,18.6c2.5,5.3,5.9,9.4,10.4,12.3c4.4,2.9,9.7,4.4,15.6,4.4
			c4.5,0,8.4-0.9,11.8-2.6c3.4-1.7,6.3-4.1,8.5-7.1s3.9-6.5,4.9-10.4l0.1-0.5h4.1l-0.1,0.5c-0.9,4.7-2.7,8.8-5.3,12.4
			s-6,6.4-10.1,8.4s-8.7,3-13.9,3C31,98.1,25,96.5,19.9,93.2z"/>
		<path class="st0" d="M83.4,95.9c-2.7-1.3-4.9-3.2-6.4-5.5c-1.5-2.4-2.3-5.1-2.3-8.2v-0.1c0-3.1,0.7-5.8,2.2-8
			c1.5-2.2,3.7-4,6.6-5.3c2.9-1.3,6.4-2.1,10.6-2.4L115,65v3.3l-20.4,1.5c-5.1,0.4-9,1.6-11.8,3.7c-2.7,2.1-4.1,5-4.1,8.6v0.1
			c0,3.5,1.4,6.4,4.1,8.6c2.7,2.2,6.2,3.4,10.5,3.4c3.6,0,6.9-0.8,9.9-2.3c3-1.6,5.3-3.7,7.1-6.4c1.8-2.7,2.7-5.6,2.7-8.9V60.2
			c0-4.8-1.4-8.5-4.1-11.2c-2.7-2.7-6.5-4.1-11.4-4.1c-4.6,0-8.4,1.1-11.4,3.2c-3,2.1-4.8,5.2-5.5,9.2L80.5,58h-3.9l0.1-0.6
			c0.5-3.4,1.6-6.3,3.4-8.6c1.8-2.4,4.2-4.2,7.1-5.5c3-1.3,6.4-1.9,10.3-1.9c4,0,7.5,0.8,10.4,2.3c2.9,1.5,5.2,3.7,6.8,6.5
			s2.4,6.1,2.4,9.9V97h-4V85.5h-0.2c-0.9,2.4-2.4,4.6-4.4,6.5c-2,1.9-4.3,3.3-7,4.4s-5.6,1.6-8.6,1.6C89.2,97.9,86.1,97.2,83.4,95.9
			z"/>
		<path class="st0" d="M128.8,42.2h4.1v11.4h0.2c1.3-3.5,3.5-6.4,6.8-8.8c3.3-2.3,7.3-3.5,12.1-3.5c6.2,0,11,1.9,14.5,5.6
			c3.5,3.7,5.3,8.9,5.3,15.6V97h-4.1V63c0-5.9-1.5-10.3-4.4-13.4s-7-4.6-12.3-4.6c-3.6,0-6.8,0.8-9.5,2.4c-2.7,1.6-4.8,3.9-6.4,6.8
			c-1.5,2.9-2.3,6.2-2.3,10.1V97h-4.1V42.2z"/>
		<path class="st0" d="M206.2,20.9h4.6l30.7,70.9h0.3l30.7-70.9h4.7V97h-4V29.4h-2.3l5.2-7.5l-32.5,75h-4l-32.5-75l5.2,7.5h-2.3V97
			h-4V20.9z"/>
		<path class="st0" d="M297.2,95.9c-2.7-1.3-4.9-3.2-6.4-5.5c-1.5-2.4-2.3-5.1-2.3-8.2v-0.1c0-3.1,0.7-5.8,2.2-8
			c1.5-2.2,3.7-4,6.6-5.3c2.9-1.3,6.4-2.1,10.6-2.4l20.9-1.5v3.3l-20.4,1.5c-5.1,0.4-9,1.6-11.8,3.7c-2.7,2.1-4.1,5-4.1,8.6v0.1
			c0,3.5,1.4,6.4,4.1,8.6c2.7,2.2,6.2,3.4,10.5,3.4c3.6,0,6.9-0.8,9.9-2.3c3-1.6,5.3-3.7,7.1-6.4c1.8-2.7,2.7-5.6,2.7-8.9V60.2
			c0-4.8-1.4-8.5-4.1-11.2c-2.7-2.7-6.5-4.1-11.4-4.1c-4.6,0-8.4,1.1-11.4,3.2c-3,2.1-4.8,5.2-5.5,9.2l-0.1,0.6h-3.9l0.1-0.6
			c0.5-3.4,1.6-6.3,3.4-8.6c1.8-2.4,4.2-4.2,7.1-5.5c3-1.3,6.4-1.9,10.3-1.9c4,0,7.5,0.8,10.4,2.3c2.9,1.5,5.2,3.7,6.8,6.5
			s2.4,6.1,2.4,9.9V97h-4V85.5h-0.2c-0.9,2.4-2.4,4.6-4.4,6.5c-2,1.9-4.3,3.3-7,4.4s-5.6,1.6-8.6,1.6
			C303,97.9,299.9,97.2,297.2,95.9z"/>
		<path class="st0" d="M343.2,20.9h4.1V97h-4.1V20.9z M346,70.2h1.4l30.8-28.1h5.3l-26.8,24.5h-0.2L346,76.1V70.2z M354.3,67.8
			L357,65l26.7,32h-5L354.3,67.8z"/>
		<path class="st0" d="M399.3,94.5c-3.7-2.3-6.5-5.5-8.5-9.8c-2-4.2-3-9.3-3-15.1v-0.1c0-5.8,1-10.9,3-15.1c2-4.2,4.8-7.5,8.4-9.8
			c3.6-2.3,7.7-3.4,12.4-3.4c4.7,0,8.9,1.1,12.4,3.3c3.6,2.2,6.3,5.4,8.3,9.4c2,4,3,8.8,3,14.3v2h-45.6v-3.4h43.7l-2.1,2.8v-1.4
			c0-4.8-0.8-9-2.5-12.4c-1.7-3.5-4-6.2-7-8c-3-1.9-6.4-2.8-10.3-2.8s-7.3,0.9-10.3,2.8c-3,1.9-5.3,4.6-7,8.1s-2.5,7.6-2.5,12.4v1.4
			c0,5.3,0.9,9.7,2.6,13.4c1.7,3.7,4.1,6.4,7.2,8.3c3.1,1.9,6.7,2.8,10.7,2.8c3.2,0,6-0.5,8.5-1.5s4.5-2.4,6.1-4.3
			c1.6-1.9,2.8-4.1,3.5-6.7l0.1-0.4h4.1l-0.1,0.5c-0.6,2.5-1.5,4.7-2.8,6.7c-1.3,2-2.9,3.7-4.8,5.1c-1.9,1.4-4.1,2.5-6.6,3.2
			s-5.2,1.1-8.1,1.1C407.3,97.9,402.9,96.8,399.3,94.5z"/>
		<path class="st0" d="M467.3,20.9h4.1V97h-4.1V20.9z M469.4,93.3h22.3c7.8,0,13.6-1.5,17.3-4.5c3.8-3,5.6-7,5.6-12v-0.1
			c0-3.5-1-6.5-2.9-9.1c-1.9-2.5-4.6-4.5-8.1-5.8c-3.5-1.4-7.6-2-12.3-2h-22V56h21.3c6,0,10.9-1.5,14.6-4.4
			c3.7-2.9,5.5-6.9,5.5-11.8v-0.1c0-4.6-1.7-8.3-5.1-11c-3.4-2.7-8.1-4.1-14.1-4.1h-22.1v-3.7h22.8c4.6,0,8.6,0.8,12,2.3
			c3.4,1.6,6,3.7,7.9,6.5c1.9,2.8,2.8,6,2.8,9.7v0.1c0,3-0.6,5.8-1.9,8.3c-1.2,2.5-3,4.6-5.3,6.2c-2.3,1.7-4.9,2.8-8,3.3v0.2
			c3.5,0.4,6.7,1.5,9.6,3.1s5.2,3.8,7,6.5c1.7,2.7,2.6,5.9,2.6,9.6v0.1c0,4.1-1,7.7-3,10.7c-2,3-4.9,5.4-8.9,7
			c-3.9,1.6-8.9,2.5-14.9,2.5h-22.7V93.3z"/>
		<path class="st0" d="M536.6,94.5c-3.7-2.3-6.5-5.5-8.5-9.8c-2-4.2-3-9.3-3-15.1v-0.1c0-5.8,1-10.9,3-15.1c2-4.2,4.8-7.5,8.4-9.8
			c3.6-2.3,7.7-3.4,12.4-3.4c4.7,0,8.9,1.1,12.4,3.3c3.6,2.2,6.3,5.4,8.3,9.4c2,4,3,8.8,3,14.3v2h-45.6v-3.4h43.7l-2.1,2.8v-1.4
			c0-4.8-0.8-9-2.5-12.4c-1.7-3.5-4-6.2-7-8c-3-1.9-6.4-2.8-10.3-2.8c-3.9,0-7.3,0.9-10.3,2.8c-3,1.9-5.3,4.6-7,8.1
			s-2.5,7.6-2.5,12.4v1.4c0,5.3,0.9,9.7,2.6,13.4c1.7,3.7,4.1,6.4,7.2,8.3c3.1,1.9,6.7,2.8,10.7,2.8c3.2,0,6-0.5,8.5-1.5
			c2.5-1,4.5-2.4,6.1-4.3c1.6-1.9,2.8-4.1,3.5-6.7l0.1-0.4h4.1l-0.1,0.5c-0.6,2.5-1.5,4.7-2.8,6.7c-1.3,2-2.9,3.7-4.8,5.1
			c-1.9,1.4-4.1,2.5-6.6,3.2s-5.2,1.1-8.1,1.1C544.6,97.9,540.3,96.8,536.6,94.5z"/>
		<path class="st0" d="M587.8,94.9c-1.9-2-2.8-5.1-2.8-9.3V45.7h-8.2v-3.5h8.2V27.3h4.1v14.8h11.3v3.5h-11.3v39.7
			c0,3.2,0.7,5.5,2,6.9c1.3,1.4,3.3,2.1,6,2.1c0.7,0,1.3,0,1.9-0.1s1.1-0.1,1.5-0.2v3.4c-0.5,0.1-1.1,0.2-1.8,0.3
			c-0.7,0.1-1.5,0.1-2.2,0.1C592.6,97.9,589.7,96.9,587.8,94.9z"/>
		<path class="st0" d="M616.1,94.9c-1.9-2-2.8-5.1-2.8-9.3V45.7h-8.2v-3.5h8.2V27.3h4.1v14.8h11.3v3.5h-11.3v39.7
			c0,3.2,0.7,5.5,2,6.9c1.3,1.4,3.3,2.1,6,2.1c0.7,0,1.3,0,1.9-0.1s1.1-0.1,1.5-0.2v3.4c-0.5,0.1-1.1,0.2-1.8,0.3
			c-0.7,0.1-1.5,0.1-2.2,0.1C620.8,97.9,617.9,96.9,616.1,94.9z"/>
		<path class="st0" d="M647.2,94.5c-3.7-2.3-6.5-5.5-8.5-9.8c-2-4.2-3-9.3-3-15.1v-0.1c0-5.8,1-10.9,3-15.1c2-4.2,4.8-7.5,8.4-9.8
			c3.6-2.3,7.7-3.4,12.4-3.4c4.7,0,8.9,1.1,12.4,3.3c3.6,2.2,6.3,5.4,8.3,9.4c2,4,3,8.8,3,14.3v2h-45.6v-3.4h43.7l-2.1,2.8v-1.4
			c0-4.8-0.8-9-2.5-12.4c-1.7-3.5-4-6.2-7-8c-3-1.9-6.4-2.8-10.3-2.8c-3.9,0-7.3,0.9-10.3,2.8c-3,1.9-5.3,4.6-7,8.1
			s-2.5,7.6-2.5,12.4v1.4c0,5.3,0.9,9.7,2.6,13.4c1.7,3.7,4.1,6.4,7.2,8.3c3.1,1.9,6.7,2.8,10.7,2.8c3.2,0,6-0.5,8.5-1.5
			c2.5-1,4.5-2.4,6.1-4.3c1.6-1.9,2.8-4.1,3.5-6.7l0.1-0.4h4.1l-0.1,0.5c-0.6,2.5-1.5,4.7-2.8,6.7c-1.3,2-2.9,3.7-4.8,5.1
			c-1.9,1.4-4.1,2.5-6.6,3.2s-5.2,1.1-8.1,1.1C655.2,97.9,650.8,96.8,647.2,94.5z"/>
		<path class="st0" d="M692.5,42.2h4.1v10.6h0.2c1.1-3.6,2.8-6.4,5.3-8.5c2.5-2,5.5-3,9.1-3c1.1,0,2.1,0.1,3,0.3
			c0.9,0.2,1.6,0.4,2.1,0.6v4.1c-0.6-0.3-1.3-0.5-2.3-0.8c-0.9-0.2-2.1-0.3-3.4-0.3c-2.9,0-5.4,0.7-7.5,2.2
			c-2.1,1.5-3.7,3.6-4.9,6.3c-1.1,2.7-1.7,5.8-1.7,9.3V97h-4.1V42.2z"/>
		<path class="st0" d="M746.5,20.9h4.1V97h-4.1V20.9z M748.6,62.5h21.5c6.5,0,11.6-1.7,15.3-5.1s5.6-8,5.6-13.8v-0.1
			c0-5.9-1.9-10.5-5.6-13.8c-3.7-3.3-8.9-5-15.3-5h-21.5v-3.8h22.2c4.9,0,9.2,0.9,12.9,2.8c3.7,1.8,6.5,4.5,8.5,7.9
			c2,3.4,3.1,7.4,3.1,11.9v0.1c0,4.6-1,8.6-3.1,12c-2,3.4-4.9,6-8.5,7.9c-3.7,1.9-7.9,2.8-12.9,2.8h-22.2V62.5z"/>
		<path class="st0" d="M804.2,42.2h4.1v10.6h0.2c1.1-3.6,2.8-6.4,5.3-8.5c2.5-2,5.5-3,9.1-3c1.1,0,2.1,0.1,3,0.3
			c0.9,0.2,1.6,0.4,2.1,0.6v4.1c-0.6-0.3-1.3-0.5-2.3-0.8c-0.9-0.2-2.1-0.3-3.4-0.3c-2.9,0-5.4,0.7-7.5,2.2
			c-2.1,1.5-3.7,3.6-4.9,6.3c-1.1,2.7-1.7,5.8-1.7,9.3V97h-4.1V42.2z"/>
		<path class="st0" d="M844.4,94.4c-3.7-2.3-6.5-5.6-8.6-9.8c-2-4.3-3.1-9.3-3.1-15v-0.1c0-5.8,1-10.8,3.1-15c2-4.2,4.9-7.5,8.6-9.8
			c3.7-2.3,7.9-3.4,12.8-3.4s9.1,1.1,12.8,3.4c3.7,2.3,6.5,5.5,8.6,9.8s3.1,9.2,3.1,15v0.1c0,5.8-1,10.8-3.1,15.1
			c-2.1,4.3-4.9,7.5-8.6,9.8c-3.7,2.3-7.9,3.4-12.8,3.4C852.4,97.9,848.1,96.7,844.4,94.4z M867.9,91.2c3.1-2,5.4-4.8,7.1-8.5
			s2.5-8.1,2.5-13.1v-0.1c0-5.1-0.9-9.4-2.6-13.1c-1.7-3.7-4.1-6.5-7.1-8.5c-3.1-2-6.6-3-10.7-3c-4.1,0-7.6,1-10.7,3
			c-3,2-5.4,4.8-7.1,8.5c-1.7,3.7-2.5,8-2.5,13.1v0.1c0,5.1,0.8,9.4,2.5,13.1s4.1,6.5,7.1,8.5c3,2,6.6,3,10.7,3
			C861.3,94.2,864.9,93.2,867.9,91.2z"/>
		<path class="st0" d="M899.4,94.3c-3.5-2.4-6.2-5.7-8.1-9.9c-1.9-4.3-2.9-9.2-2.9-14.9v-0.1c0-5.6,1-10.6,2.9-14.8
			c2-4.2,4.7-7.5,8.1-9.9c3.5-2.4,7.5-3.5,12-3.5c3.3,0,6.3,0.6,9.1,1.9c2.8,1.3,5.1,3.1,7.1,5.4s3.4,5,4.3,8.2h0.1V20.9h4.1V97H932
			V82.8h-0.3c-0.9,3-2.4,5.7-4.3,7.9c-2,2.3-4.3,4-7,5.3c-2.7,1.3-5.7,1.9-9,1.9C906.9,97.9,902.8,96.7,899.4,94.3z M922.4,91.1
			c3-2.1,5.3-5,7-8.7c1.7-3.7,2.5-8,2.5-12.8v-0.1c0-4.9-0.9-9.1-2.6-12.8c-1.7-3.7-4.1-6.6-7-8.7c-3-2.1-6.4-3.1-10.3-3.1
			c-3.9,0-7.3,1-10.3,3.1c-3,2-5.2,4.9-6.9,8.6c-1.6,3.7-2.5,8-2.5,12.9v0.1c0,4.9,0.8,9.2,2.5,12.9c1.6,3.7,3.9,6.6,6.9,8.6
			s6.4,3.1,10.3,3.1S919.4,93.2,922.4,91.1z"/>
		<path class="st0" d="M957.6,95.3c-3-1.7-5.2-4.1-6.8-7.3c-1.6-3.2-2.4-7-2.4-11.4V42.2h4.1v34c0,5.9,1.5,10.3,4.4,13.4
			s7,4.6,12.3,4.6c2.7,0,5.2-0.5,7.4-1.4c2.2-0.9,4.1-2.2,5.7-4c1.6-1.7,2.8-3.8,3.7-6.1c0.8-2.3,1.3-4.9,1.3-7.8V42.2h4.1V97h-4.1
			V85.6h-0.1c-0.8,2.3-2.1,4.4-3.9,6.3c-1.8,1.9-3.9,3.3-6.5,4.4c-2.5,1.1-5.4,1.6-8.6,1.6C964.1,97.8,960.5,97,957.6,95.3z"/>
		<path class="st0" d="M1012.1,94.4c-3.6-2.3-6.4-5.6-8.4-9.8c-2-4.3-3-9.3-3-15v-0.1c0-5.8,1-10.8,3-15c2-4.2,4.8-7.5,8.4-9.8
			c3.6-2.3,7.9-3.5,12.8-3.5c3.9,0,7.4,0.7,10.5,2.2c3.1,1.5,5.6,3.5,7.6,6c2,2.5,3.2,5.4,3.8,8.5l0.1,0.5h-4.1l-0.1-0.5
			c-0.8-3.8-2.9-7-6-9.4c-3.2-2.4-7.1-3.7-11.7-3.7c-4.1,0-7.6,1-10.6,3s-5.3,4.8-7,8.5c-1.7,3.7-2.5,8-2.5,13.1v0.1
			c0,5.1,0.8,9.4,2.5,13.1c1.7,3.7,4,6.5,7,8.5c3,2,6.6,3,10.6,3c4.5,0,8.4-1.2,11.6-3.6c3.2-2.4,5.2-5.6,6.1-9.5l0.1-0.5h4.1
			l-0.1,0.5c-0.6,3.3-1.9,6.2-3.9,8.7c-2,2.5-4.5,4.5-7.5,5.9c-3,1.4-6.5,2.1-10.3,2.1C1020,97.9,1015.7,96.7,1012.1,94.4z"/>
		<path class="st0" d="M1061.7,94.9c-1.9-2-2.8-5.1-2.8-9.3V45.7h-8.2v-3.5h8.2V27.3h4.1v14.8h11.3v3.5H1063v39.7
			c0,3.2,0.7,5.5,2,6.9c1.3,1.4,3.3,2.1,6,2.1c0.7,0,1.3,0,1.9-0.1s1.1-0.1,1.5-0.2v3.4c-0.5,0.1-1.1,0.2-1.8,0.3
			c-0.7,0.1-1.5,0.1-2.2,0.1C1066.4,97.9,1063.6,96.9,1061.7,94.9z"/>
		<path class="st0" d="M1091.6,95.8c-3-1.4-5.5-3.3-7.3-5.7c-1.8-2.4-2.9-5.2-3.3-8.4l-0.1-0.5h4.1l0.1,0.5c0.5,3.7,2.3,6.8,5.4,9.1
			s6.9,3.6,11.5,3.6c3.2,0,5.9-0.5,8.3-1.5c2.4-1,4.2-2.3,5.6-4.1c1.3-1.8,2-3.8,2-6v-0.1c0-2.9-0.9-5.2-2.8-6.9c-1.9-1.7-5-3-9.4-4
			l-7.7-1.8c-3.4-0.8-6.3-1.9-8.6-3.1c-2.3-1.2-3.9-2.8-5-4.5c-1.1-1.8-1.6-3.8-1.6-6.2v-0.1c0-2.9,0.8-5.5,2.4-7.7
			c1.6-2.2,3.8-4,6.6-5.2c2.8-1.3,6-1.9,9.6-1.9c3.8,0,7,0.7,9.9,2c2.8,1.4,5.1,3.2,6.8,5.7c1.7,2.4,2.7,5.3,3.1,8.5l0.1,0.5h-4
			l-0.1-0.4c-0.5-3.9-2.2-7-5-9.3c-2.8-2.3-6.4-3.5-10.8-3.5c-2.8,0-5.3,0.5-7.5,1.5c-2.2,1-3.9,2.3-5.1,4c-1.2,1.7-1.8,3.6-1.8,5.8
			v0.1c0,1.8,0.4,3.3,1.2,4.6c0.8,1.3,2.1,2.4,4,3.3c1.8,0.9,4.2,1.7,7.1,2.5l7.7,1.8c5.4,1.3,9.2,3,11.6,5.2c2.4,2.2,3.5,5.2,3.5,9
			v0.1c0,3-0.9,5.6-2.6,7.9c-1.7,2.3-4.1,4.1-7,5.4c-3,1.3-6.4,2-10.3,2C1098.1,97.9,1094.7,97.2,1091.6,95.8z"/>
	</g>
</g>
<g>
	<g>
		<path class="st0" d="M1162.5,64.6c-0.4,0.4-0.8,0.6-1.3,0.6h-11.5c-0.5,0-0.9-0.2-1.3-0.6s-0.6-0.8-0.6-1.3c0-0.5,0.2-0.9,0.6-1.3
			c0.4-0.4,0.8-0.6,1.3-0.6h11.5c0.5,0,1,0.2,1.3,0.6c0.4,0.4,0.6,0.8,0.6,1.3C1163,63.8,1162.9,64.3,1162.5,64.6z M1171.6,39.8
			c-0.5,0-1-0.2-1.3-0.6l-8.1-8.2c-0.4-0.3-0.6-0.8-0.6-1.3c0-0.5,0.2-1,0.6-1.3c0.4-0.4,0.8-0.6,1.4-0.6s1,0.2,1.3,0.6l8.1,8.1
			c0.4,0.4,0.6,0.8,0.6,1.3c0,0.5-0.2,1-0.6,1.3S1172.1,39.8,1171.6,39.8z M1173.6,88.8c0,0.5-0.2,1-0.6,1.3l-8.1,8.1
			c-0.4,0.4-0.8,0.6-1.4,0.6s-1-0.2-1.3-0.6c-0.4-0.4-0.6-0.8-0.6-1.4c0-0.5,0.2-1,0.6-1.3l8.2-8.1c0.4-0.4,0.8-0.6,1.3-0.6
			c0.5,0,1,0.2,1.3,0.6C1173.4,87.8,1173.6,88.2,1173.6,88.8z M1192.7,53.8c0-0.6,0.3-1,0.8-1.3c0.5-0.2,1-0.1,1.5,0.3l25.4,28
			c0.4,0.4,0.4,0.9,0.2,1.4c-0.2,0.5-0.6,0.7-1.2,0.7l-11.2-0.3l9,21c0.1,0.3,0.1,0.6,0,1c-0.1,0.3-0.3,0.5-0.6,0.7l-3.1,1.3
			c-0.3,0.1-0.7,0.1-1,0c-0.3-0.1-0.5-0.4-0.7-0.7l-8.8-21.5l-7.5,7.6c-0.4,0.4-0.9,0.5-1.4,0.3c-0.5-0.2-0.8-0.6-0.8-1.2
			L1192.7,53.8z M1195.8,28.7c-0.4-0.4-0.6-0.8-0.6-1.4V15.9c0-0.5,0.2-1,0.6-1.4c0.4-0.4,0.9-0.6,1.3-0.6c0.5,0,0.9,0.2,1.3,0.6
			c0.4,0.4,0.6,0.8,0.6,1.4v11.5c0,0.5-0.2,1-0.6,1.4c-0.4,0.4-0.8,0.6-1.3,0.6C1196.6,29.3,1196.2,29.1,1195.8,28.7z M1220.6,37.9
			c0-0.5,0.2-1,0.6-1.3l8.1-8.1c0.4-0.4,0.8-0.6,1.3-0.6c0.5,0,1,0.2,1.3,0.6s0.6,0.8,0.6,1.3c0,0.5-0.2,1-0.6,1.3l-8.1,8.1
			c-0.4,0.4-0.8,0.6-1.3,0.6s-1-0.2-1.3-0.6S1220.6,38.5,1220.6,37.9z M1231.8,62c0.4-0.4,0.8-0.6,1.3-0.6h11.5
			c0.5,0,0.9,0.2,1.3,0.6c0.4,0.4,0.6,0.8,0.6,1.3c0,0.5-0.2,0.9-0.6,1.3c-0.4,0.4-0.9,0.6-1.3,0.6h-11.5c-0.5,0-0.9-0.2-1.3-0.6
			c-0.4-0.4-0.6-0.8-0.6-1.3C1231.2,62.8,1231.4,62.4,1231.8,62z"/>
	</g>
</g>
</svg>
