<?xml version="1.0" encoding="utf-8"?>
<!-- Generator: Adobe Illustrator 27.0.0, SVG Export Plug-In . SVG Version: 6.00 Build 0)  -->
<svg version="1.1" id="Layer_2_00000117635318544612459040000006328165770317706430_"
	 xmlns="http://www.w3.org/2000/svg" xmlns:xlink="http://www.w3.org/1999/xlink" x="0px" y="0px" viewBox="0 0 1254 125"
	 style="enable-background:new 0 0 1254 125;" xml:space="preserve">
<style type="text/css">
	.st0{fill:none;}
	.st1{fill:#616ECE;}
</style>
<rect class="st0" width="1254" height="125"/>
<g>
	<g>
		<path class="st1" d="M733.4,69l-30,30c-0.9,0.9-1.9,1.3-2.9,1.3c-2.2,0-3.9-1.6-3.9-3.9c0-1.1,0.4-2.2,1.1-2.8l10.1-10.3L723,69.4
			l-10.9,0.7h-57.2c-2.3,0-4-1.7-4-4s1.6-4,4-4h57.2l10.9,0.7l-15.2-13.9l-10.1-10.3c-0.7-0.7-1.1-1.8-1.1-2.8
			c0-2.3,1.7-3.9,3.9-3.9c1.1,0,2,0.4,3,1.4l30,29.9c0.9,0.9,1.4,1.9,1.4,3C734.8,67.1,734.3,68.2,733.4,69z"/>
		<path class="st1" d="M1021.1,31.9c7.5,0,13.6,3.6,17.2,9c3.7-5.4,9.7-9,17.2-9c13.1,0,22.9,10.1,22.9,24.4
			c0,17.2-14.4,34.1-37.1,48.6c-0.9,0.5-2.1,1.1-2.9,1.1s-2.1-0.6-2.9-1.1c-22.9-14.5-37.3-31.4-37.3-48.6
			C998.2,42,1008,31.9,1021.1,31.9L1021.1,31.9z M1037.5,98.7c0.4,0.3,0.6,0.5,0.8,0.5s0.4-0.2,0.8-0.5
			c16.9-11.2,32.7-27.4,32.7-42.4c0-10.7-6.9-17.9-16.3-17.9c-7.5,0-11.7,4.8-14.5,8.8c-1.2,1.6-1.8,2.1-2.7,2.1
			c-1,0-1.7-0.4-2.7-2.1c-2.6-4-6.9-8.8-14.5-8.8c-9.4,0-16.3,7.1-16.3,17.9C1004.7,71.3,1020.5,87.5,1037.5,98.7z"/>
		<g>
			<path class="st1" d="M766.4,26h13.1v62.3h33.7v11h-46.8V26z"/>
			<path class="st1" d="M816.6,71.6L816.6,71.6c0-17.9,10.2-28.9,26.7-28.9S870,53.6,870,71.5v0.1c0,18-10.1,28.9-26.7,28.9
				S816.6,89.6,816.6,71.6z M857.1,71.7L857.1,71.7c0-11.8-5-18.7-13.8-18.7s-13.8,6.9-13.8,18.6v0.1c0,11.7,5,18.5,13.8,18.5
				S857.1,83.4,857.1,71.7z"/>
			<path class="st1" d="M871.6,43.8h13.5L897.9,87h0.9l12.8-43.2h13.3l-19.7,55.6h-13.9L871.6,43.8z"/>
			<path class="st1" d="M926.4,71.7L926.4,71.7c0-17.5,10.1-29,25.9-29s25.6,11.1,25.6,27.8v4.2h-38.8c0.2,10,5.5,15.8,14.1,15.8
				c6.9,0,10.8-3.5,12-6l0.2-0.4h12.1l-0.2,0.5c-1.8,7.2-9.2,15.9-24.3,15.9C936.4,100.5,926.4,89.4,926.4,71.7L926.4,71.7z
				 M939.2,66.3h26.4c-0.9-9.1-6-13.6-13.1-13.6S940.1,57.4,939.2,66.3z"/>
		</g>
	</g>
	<g>
		<path class="st1" d="M0,25.4h13.7l12.6,55h0.8l14.4-55h11.6l14.6,55h0.7l12.6-55h13.6L74.9,98.7H62.6L47.7,46.2h-0.8L32.1,98.7
			H19.8L0,25.4z"/>
		<path class="st1" d="M103.1,21.7h12.7v30h0.9c2.6-6,8-9.6,16-9.6c12.4,0,19.2,7.5,19.2,20.7v35.9h-12.7v-33c0-8.6-3.5-13-11.2-13
			s-12.2,5.3-12.2,13.6v32.4h-12.7V21.7L103.1,21.7z"/>
		<path class="st1" d="M159.8,71L159.8,71c0-17.9,10.2-28.9,26.7-28.9s26.7,10.9,26.7,28.8V71c0,18-10.1,28.9-26.7,28.9
			S159.8,89,159.8,71z M200.3,71.1L200.3,71.1c0-11.8-5-18.7-13.8-18.7s-13.8,6.9-13.8,18.6v0.1c0,11.7,5,18.5,13.8,18.5
			S200.3,82.8,200.3,71.1z"/>
		<path class="st1" d="M246.7,25.4h30.6c13.9,0,22.3,7,22.3,18.2v0.1c0,7.7-5.7,14.5-13.1,15.7v0.9c9.9,0.9,16.7,8,16.7,17.5V78
			c0,12.9-9.6,20.8-25.2,20.8h-31.4V25.4H246.7z M259.8,35.7v20.7h12.7c9.3,0,14.2-3.6,14.2-10.3V46c0-6.5-4.6-10.3-12.5-10.3H259.8
			L259.8,35.7z M259.8,65.6v22.9H275c9.7,0,14.8-4,14.8-11.5l0,0c0-7.4-5.3-11.3-15.3-11.3L259.8,65.6L259.8,65.6z"/>
		<path class="st1" d="M309.3,71.1L309.3,71.1c0-17.5,10.1-29,25.9-29s25.6,11.1,25.6,27.8v4.2H322c0.1,10,5.5,15.8,14.1,15.8
			c6.9,0,10.8-3.5,12-6l0.1-0.4h12l-0.1,0.5c-1.8,7.2-9.2,15.9-24.3,15.9C319.3,99.9,309.3,88.8,309.3,71.1L309.3,71.1z M322,65.7
			h26.4c-0.9-9.1-6-13.6-13.1-13.6C328.2,52.1,323,56.8,322,65.7z"/>
		<path class="st1" d="M369.8,21.7h12.7v77h-12.7V21.7z"/>
		<path class="st1" d="M393.2,26.4c0-4.1,3.4-7.5,7.6-7.5s7.5,3.4,7.5,7.5s-3.4,7.5-7.5,7.5C396.7,33.9,393.2,30.6,393.2,26.4z
			 M394.4,43.2h12.7v55.5h-12.7V43.2L394.4,43.2z"/>
		<path class="st1" d="M415.7,71.1L415.7,71.1c0-17.5,10.1-29,25.9-29s25.6,11.1,25.6,27.9v4.2h-38.8c0.2,10,5.5,15.8,14.1,15.8
			c6.9,0,10.8-3.5,12-6l0.2-0.4h12l-0.2,0.5c-1.8,7.2-9.2,15.9-24.3,15.9C425.7,99.9,415.7,88.8,415.7,71.1L415.7,71.1z M428.4,65.7
			h26.4c-0.9-9.1-6-13.6-13.1-13.6S429.4,56.8,428.4,65.7z"/>
		<path class="st1" d="M469.5,43.2H483l12.9,43.2h0.9l12.8-43.2h13.3l-19.7,55.6h-13.9L469.5,43.2z"/>
		<path class="st1" d="M524.4,71.1L524.4,71.1c0-17.5,10.1-29,25.9-29s25.6,11.1,25.6,27.8v4.2h-38.8c0.2,10,5.5,15.8,14.1,15.8
			c6.9,0,10.8-3.5,12-6l0.2-0.4h12l-0.2,0.5c-1.8,7.2-9.2,15.9-24.3,15.9C534.4,99.9,524.4,88.8,524.4,71.1L524.4,71.1z M537.1,65.7
			h26.4c-0.9-9.1-6-13.6-13.1-13.6S538.1,56.8,537.1,65.7z"/>
		<path class="st1" d="M581.6,84L581.6,84l12.5-0.1V84c1.3,3.9,5,6.6,11.3,6.6s10.7-2.8,10.7-7v-0.1c0-3.2-2.4-5.4-8.5-6.8l-9-2
			C588,72.4,583,67.4,583,59.2l0,0c0-10,9.2-16.9,22.3-16.9S626.9,49,627.7,58v0h-11.9v-0.2c-0.9-3.5-4.6-6.3-10.5-6.3
			s-9.7,2.7-9.7,6.9l0,0c0,3.2,2.3,5.2,8.3,6.6l9,2c10.9,2.4,16,7.1,16,15.2v0.1c0,10.6-9.9,17.6-23.6,17.6S582.6,93.4,581.6,84
			L581.6,84z"/>
	</g>
</g>
</svg>
